<?xml version="1.0" encoding="UTF-8"?>
<!DOCTYPE svg PUBLIC "-//W3C//DTD SVG 1.1//EN" "http://www.w3.org/Graphics/SVG/1.1/DTD/svg11.dtd">
<!-- Creator: CorelDRAW Standard 2021 (64-Bit) -->
<?xml-stylesheet href="fancy-1_5x3.css" type="text/css"?>
<svg xmlns="http://www.w3.org/2000/svg" xml:space="preserve" width="3in" height="1.5in" version="1.1" style="shape-rendering:geometricPrecision; text-rendering:geometricPrecision; image-rendering:optimizeQuality; fill-rule:evenodd; clip-rule:evenodd"
viewBox="0 0 3000 1500"
 xmlns:xlink="http://www.w3.org/1999/xlink"
 xmlns:xodm="http://www.corel.com/coreldraw/odm/2003">
 <g id="Layer_x0020_1">
  <metadata id="CorelCorpID_0Corel-Layer"/>
  <g id="_2316827879808">
   <path id="Outline" class="fil0" d="M1542.26 -1.31l0 3.47c90.88,0 190.27,6.93 303.8,21.12l1153.41 168.75 0.52 0 0 1116.81 -1.03 0c0,0 -1152.83,168.71 -1152.83,168.71 -113.61,14.21 -213.01,21.13 -303.86,21.13 -14.23,0 -28.41,-0.17 -42.35,-0.54 -13.74,0.35 -27.94,0.54 -42.17,0.54 -90.86,0 -190.27,-6.92 -303.8,-21.11l-1153.43 -168.74 -0.54 0 0 -1116.82 1.03 0c0,0 1152.83,-168.71 1152.83,-168.71 113.61,-14.21 213.01,-21.13 303.86,-21.13 14.23,0 28.41,0.17 42.35,0.54 13.74,-0.35 27.94,-0.54 42.17,-0.54l0 -3.47 0.03 -0.01z"/>
  </g>
  <g id="_2316827878368">
   <path id="Inner" class="fil1 str0" d="M1540.15 73.69l0 3.13c86.33,0 180.75,6.23 288.61,19l1095.74 151.88 0.5 0 0 1005.13 -0.98 0c0,0 -1095.19,151.84 -1095.19,151.84 -107.93,12.79 -202.36,19.02 -288.67,19.02 -13.52,0 -26.99,-0.15 -40.23,-0.48 -13.05,0.31 -26.55,0.48 -40.06,0.48 -86.31,0 -180.75,-6.23 -288.6,-19l-1095.76 -151.87 -0.51 0 0 -1005.14 0.98 0c0,0 1095.19,-151.84 1095.19,-151.84 107.93,-12.79 202.36,-19.02 288.67,-19.02 13.52,0 26.99,0.16 40.23,0.48 13.05,-0.31 26.55,-0.48 40.06,-0.48l0 -3.12 0.03 -0.01z"/>
  </g>
 </g>
</svg>
