<svg xmlns="http://www.w3.org/2000/svg" viewBox="0 0 4000 2819.44">
  <defs>
    <clipPath id="mask">
      <path id="inner" d="M1281.15 659.72c-21.04,0 -42.07,7.37 -58.96,22.14l-703.47 615.26c-37.86,33.11 -14.44,95.46 35.86,95.46l89.68 0 0 678.74c0,48.82 39.58,88.4 88.4,88.4l2566.6 0c48.83,0 88.4,-39.58 88.4,-88.4l0 -678.74 57.76 0c47.83,0 72.43,-57.25 39.52,-91.94l-435.63 -459.14c-10.28,-10.85 -24.57,-16.99 -39.51,-16.99l-927.88 0 0 -105.35c0,-30.08 -24.39,-54.47 -54.47,-54.47l-196.96 0c-30.08,0 -54.47,24.39 -54.47,54.47l0 105.35 -272.82 0 -163.1 -142.65c-16.89,-14.76 -37.92,-22.14 -58.96,-22.14zm0 13.89c18.33,0 36.01,6.64 49.8,18.71l163.11 142.65 3.91 3.43 5.22 0 272.82 0 13.89 0 0 -13.89 0 -105.35c0,-22.37 18.21,-40.58 40.58,-40.58l196.96 0c22.38,0 40.59,18.21 40.59,40.58l0 105.35 0 13.89 13.89 0 927.88 0c11.08,0 21.82,4.61 29.44,12.65l435.61 459.14c13.57,14.29 12.94,32.07 7.85,43.94 -5.1,11.87 -17.57,24.56 -37.28,24.56l-57.76 0 -13.89 0 0 13.89 0 678.74c0,41.08 -33.43,74.51 -74.51,74.51l-2566.6 0c-41.09,0 -74.51,-33.43 -74.51,-74.51l0 -678.74 0 -13.89 -13.89 0 -89.68 0c-20.72,0 -33.21,-13.58 -37.98,-26.31 -4.78,-12.72 -4.33,-31.17 11.26,-44.8l703.48 -615.26c13.79,-12.07 31.47,-18.71 49.81,-18.71z"/>
    </clipPath>
  </defs>
  
  <!-- Background fill -->
  <path d="M1281.15 659.72c-21.04,0 -42.07,7.37 -58.96,22.14l-703.47 615.26c-37.86,33.11 -14.44,95.46 35.86,95.46l89.68 0 0 678.74c0,48.82 39.58,88.4 88.4,88.4l2566.6 0c48.83,0 88.4,-39.58 88.4,-88.4l0 -678.74 57.76 0c47.83,0 72.43,-57.25 39.52,-91.94l-435.63 -459.14c-10.28,-10.85 -24.57,-16.99 -39.51,-16.99l-927.88 0 0 -105.35c0,-30.08 -24.39,-54.47 -54.47,-54.47l-196.96 0c-30.08,0 -54.47,24.39 -54.47,54.47l0 105.35 -272.82 0 -163.1 -142.65c-16.89,-14.76 -37.92,-22.14 -58.96,-22.14zm0 13.89c18.33,0 36.01,6.64 49.8,18.71l163.11 142.65 3.91 3.43 5.22 0 272.82 0 13.89 0 0 -13.89 0 -105.35c0,-22.37 18.21,-40.58 40.58,-40.58l196.96 0c22.38,0 40.59,18.21 40.59,40.58l0 105.35 0 13.89 13.89 0 927.88 0c11.08,0 21.82,4.61 29.44,12.65l435.61 459.14c13.57,14.29 12.94,32.07 7.85,43.94 -5.1,11.87 -17.57,24.56 -37.28,24.56l-57.76 0 -13.89 0 0 13.89 0 678.74c0,41.08 -33.43,74.51 -74.51,74.51l-2566.6 0c-41.09,0 -74.51,-33.43 -74.51,-74.51l0 -678.74 0 -13.89 -13.89 0 -89.68 0c-20.72,0 -33.21,-13.58 -37.98,-26.31 -4.78,-12.72 -4.33,-31.17 11.26,-44.8l703.48 -615.26c13.79,-12.07 31.47,-18.71 49.81,-18.71z" fill="#ffffff"/>
  
  <!-- Outline -->
  <path id="outline" d="M1281.15 659.72c-21.04,0 -42.07,7.37 -58.96,22.14l-703.47 615.26c-37.86,33.11 -14.44,95.46 35.86,95.46l89.68 0 0 678.74c0,48.82 39.58,88.4 88.4,88.4l2566.6 0c48.83,0 88.4,-39.58 88.4,-88.4l0 -678.74 57.76 0c47.83,0 72.43,-57.25 39.52,-91.94l-435.63 -459.14c-10.28,-10.85 -24.57,-16.99 -39.51,-16.99l-927.88 0 0 -105.35c0,-30.08 -24.39,-54.47 -54.47,-54.47l-196.96 0c-30.08,0 -54.47,24.39 -54.47,54.47l0 105.35 -272.82 0 -163.1 -142.65c-16.89,-14.76 -37.92,-22.14 -58.96,-22.14zm0 13.89c18.33,0 36.01,6.64 49.8,18.71l163.11 142.65 3.91 3.43 5.22 0 272.82 0 13.89 0 0 -13.89 0 -105.35c0,-22.37 18.21,-40.58 40.58,-40.58l196.96 0c22.38,0 40.59,18.21 40.59,40.58l0 105.35 0 13.89 13.89 0 927.88 0c11.08,0 21.82,4.61 29.44,12.65l435.61 459.14c13.57,14.29 12.94,32.07 7.85,43.94 -5.1,11.87 -17.57,24.56 -37.28,24.56l-57.76 0 -13.89 0 0 13.89 0 678.74c0,41.08 -33.43,74.51 -74.51,74.51l-2566.6 0c-41.09,0 -74.51,-33.43 -74.51,-74.51l0 -678.74 0 -13.89 -13.89 0 -89.68 0c-20.72,0 -33.21,-13.58 -37.98,-26.31 -4.78,-12.72 -4.33,-31.17 11.26,-44.8l703.48 -615.26c13.79,-12.07 31.47,-18.71 49.81,-18.71z" fill="none" stroke="#ff0000" stroke-width="2"/>
</svg>
