<svg xmlns="http://www.w3.org/2000/svg" viewBox="0 0 350 100">
  <defs>
    <clipPath id="mask">
      <path id="inner" d="M25,0 L325,0 A25,25 0 0,1 350,25 L350,75 A25,25 0 0,1 325,100 L25,100 A25,25 0 0,1 0,75 L0,25 A25,25 0 0,1 25,0 Z"/>
    </clipPath>
  </defs>
  
  <!-- Background fill -->
  <rect x="0" y="0" width="350" height="100" rx="25" ry="25" fill="#ffffff"/>
  
  <!-- Outline -->
  <path id="outline" d="M25,0 L325,0 A25,25 0 0,1 350,25 L350,75 A25,25 0 0,1 325,100 L25,100 A25,25 0 0,1 0,75 L0,25 A25,25 0 0,1 25,0 Z" fill="none" stroke="#ff0000" stroke-width="2"/>
</svg>
