<?xml version="1.0" encoding="UTF-8"?>
<!DOCTYPE svg PUBLIC "-//W3C//DTD SVG 1.1//EN" "http://www.w3.org/Graphics/SVG/1.1/DTD/svg11.dtd">
<!-- Creator: CorelDRAW Standard 2021 (64-Bit) -->
<svg xmlns="http://www.w3.org/2000/svg" xml:space="preserve" width="3in" height="1in" version="1.1" shape-rendering="geometricPrecision" text-rendering="geometricPrecision" image-rendering="optimizeQuality" fill-rule="evenodd" clip-rule="evenodd"
viewBox="0 0 3000 1000"
 xmlns:xlink="http://www.w3.org/1999/xlink"
 xmlns:xodm="http://www.corel.com/coreldraw/odm/2003">
 <g id="Layer_x0020_1">
  <metadata id="CorelCorpID_0Corel-Layer"/>
  <g id="_2050720247408">
   <g>
    <path id="Outline" fill="black" fill-rule="nonzero" d="M2745.92 3.48c138.19,0 250.61,112.43 250.61,250.61l0 491.83c0,138.19 -112.43,250.61 -250.61,250.61l-2491.83 0c-138.18,0 -250.61,-112.43 -250.61,-250.61l0 -495.92c0,-135.93 110.6,-246.53 246.53,-246.53l2495.92 0 0 0 -0.01 0.01zm0 -3.47l-2495.92 0c-138.07,0 -250,111.93 -250,250l0 495.92c0,140.33 113.76,254.08 254.08,254.08l2491.83 0c140.33,0 254.08,-113.76 254.08,-254.08l0 -491.83c0,-140.33 -113.76,-254.08 -254.08,-254.08l0 0 0.01 -0.01z"/>
   </g>
   <path id="Inner" fill="black" fill-rule="nonzero" d="M2745.92 3.48c138.19,0 250.61,112.43 250.61,250.61l0 491.83c0,138.19 -112.43,250.61 -250.61,250.61l-2491.83 0c-138.18,0 -250.61,-112.43 -250.61,-250.61l0 -495.92c0,-135.93 110.6,-246.53 246.53,-246.53l2495.92 0 0 0 -0.01 0.01zm0 -3.47l-2495.92 0c-138.07,0 -250,111.93 -250,250l0 495.92c0,140.33 113.76,254.08 254.08,254.08l2491.83 0c140.33,0 254.08,-113.76 254.08,-254.08l0 -491.83c0,-140.33 -113.76,-254.08 -254.08,-254.08l0 0 0.01 -0.01z"/>
  </g>
 </g>
</svg>




