<?xml version="1.0" encoding="UTF-8"?>
<!DOCTYPE svg PUBLIC "-//W3C//DTD SVG 1.1//EN" "http://www.w3.org/Graphics/SVG/1.1/DTD/svg11.dtd">
<!-- Creator: CorelDRAW Standard 2021 (64-Bit) -->
<?xml-stylesheet href="designer-1x3.css" type="text/css"?>
<svg xmlns="http://www.w3.org/2000/svg" xml:space="preserve" width="3in" height="1in" version="1.1" style="shape-rendering:geometricPrecision; text-rendering:geometricPrecision; image-rendering:optimizeQuality; fill-rule:evenodd; clip-rule:evenodd"
viewBox="0 0 3000 1000"
 xmlns:xlink="http://www.w3.org/1999/xlink"
 xmlns:xodm="http://www.corel.com/coreldraw/odm/2003">
 <g id="Layer_x0020_1">
  <metadata id="CorelCorpID_0Corel-Layer"/>
  <g id="_2316827879808">
   <path id="Outline" class="fil0" d="M2238.61 0.02c65.39,0 113.02,12.37 141.56,36.78 21.62,18.49 32.33,43.85 31.82,75.38l0 0.95c0,0 -0.06,3.55 -0.06,3.55l4.03 -0.74 1.11 -0.2c16.98,-3.09 34.24,-5.46 51.33,-7.02 17.1,-1.56 34.48,-2.34 51.63,-2.34 124.71,0 242.89,39.8 332.74,112.07 89.98,72.38 142.19,169.58 146.99,273.59 0,1.32 0.06,2.72 0.13,4.15 0.06,1.23 0.12,2.46 0.12,3.8 0,1.34 -0.05,2.56 -0.12,3.83 -0.06,1.4 -0.13,2.8 -0.13,4.01 -4.81,104.13 -57.03,201.34 -147,273.72 -89.86,72.28 -208.03,112.07 -332.74,112.07 -17.15,0 -34.53,-0.79 -51.63,-2.34 -17.09,-1.56 -34.35,-3.91 -51.33,-7.02l-1.11 -0.2 -4.03 -0.74 0.05 3.55 0 0.95c0.53,31.52 -10.17,56.89 -31.8,75.39 -28.53,24.41 -76.16,36.77 -141.56,36.77 -155.93,0 -256.99,-20.87 -346.17,-39.28 -68.28,-14.1 -127.24,-26.27 -196.92,-26.27 -134.56,0 -182.54,45.58 -195.52,62.12 -12.98,-16.54 -60.97,-62.12 -195.52,-62.12 -69.7,0 -128.65,12.19 -196.97,26.27 -89.17,18.42 -190.23,39.27 -346.13,39.27 -65.38,0 -113,-12.37 -141.56,-36.78 -21.63,-18.5 -32.33,-43.85 -31.8,-75.38l0 -0.95c0,0 0.08,-3.55 0.08,-3.55l-4.04 0.74 -1.11 0.21c-16.96,3.09 -34.24,5.46 -51.33,7.02 -17.1,1.56 -34.48,2.34 -51.63,2.34 -124.71,0 -242.89,-39.81 -332.74,-112.07 -89.98,-72.38 -142.19,-169.58 -147,-273.6 0,-1.25 -0.05,-2.58 -0.13,-4.13 -0.06,-1.23 -0.12,-2.48 -0.12,-3.83 0,-1.35 0.05,-2.58 0.12,-4.01 0.05,-1.35 0.12,-2.7 0.12,-3.83 4.83,-104.13 57.03,-201.34 147,-273.72 89.86,-72.28 208.03,-112.07 332.74,-112.07 17.15,0 34.52,0.78 51.63,2.34 17.09,1.56 34.35,3.91 51.35,7.02l1.11 0.21 4.04 0.74 -0.06 -3.56 0 -0.95c-0.54,-31.52 10.17,-56.89 31.79,-75.39 28.53,-24.41 76.16,-36.77 141.56,-36.77 155.91,0 256.98,20.87 346.15,39.27 68.28,14.1 127.26,26.27 196.95,26.27 134.54,0 182.54,-45.58 195.52,-62.13 12.98,16.54 60.97,62.13 195.52,62.13 69.68,0 128.65,-12.19 196.97,-26.27 89.17,-18.42 190.22,-39.27 346.13,-39.27l-0.03 0.05z"/>
  </g>
  <g id="_2316827878368">
   <path id="Inner" class="fil1 str0" d="M2234.91 7.52c65.06,0 112.45,12.18 140.85,36.22 21.52,18.21 32.17,43.2 31.66,74.25l0 0.94c0,0 -0.06,3.5 -0.06,3.5l4.01 -0.73 1.11 -0.2c16.89,-3.05 34.07,-5.38 51.07,-6.91 17.02,-1.53 34.3,-2.31 51.37,-2.31 124.09,0 241.67,39.21 331.08,110.39 89.54,71.3 141.47,167.04 146.26,269.48 0,1.3 0.06,2.69 0.13,4.09 0.05,1.21 0.12,2.43 0.12,3.74 0,1.32 -0.05,2.52 -0.12,3.78 -0.06,1.37 -0.13,2.76 -0.13,3.95 -4.78,102.57 -56.74,198.32 -146.27,269.62 -89.41,71.19 -206.98,110.39 -331.08,110.39 -17.07,0 -34.36,-0.78 -51.37,-2.31 -17.01,-1.54 -34.18,-3.85 -51.07,-6.91l-1.11 -0.2 -4.02 -0.73 0.06 3.5 0 0.93c0.52,31.05 -10.11,56.04 -31.64,74.26 -28.39,24.04 -75.78,36.22 -140.85,36.22 -155.15,0 -255.7,-20.56 -344.44,-38.69 -67.94,-13.89 -126.61,-25.88 -195.94,-25.88 -133.89,0 -181.63,44.9 -194.54,61.19 -12.91,-16.29 -60.66,-61.19 -194.54,-61.19 -69.35,0 -128.01,12 -195.98,25.88 -88.73,18.14 -189.28,38.68 -344.41,38.68 -65.05,0 -112.44,-12.19 -140.85,-36.22 -21.53,-18.22 -32.17,-43.2 -31.64,-74.25l0 -0.93c0,0 0.08,-3.5 0.08,-3.5l-4.02 0.73 -1.11 0.2c-16.87,3.04 -34.06,5.38 -51.07,6.91 -17.02,1.54 -34.3,2.31 -51.37,2.31 -124.09,0 -241.67,-39.21 -331.08,-110.39 -89.54,-71.3 -141.47,-167.04 -146.27,-269.5 0,-1.23 -0.05,-2.54 -0.13,-4.07 -0.05,-1.22 -0.12,-2.45 -0.12,-3.78 0,-1.33 0.05,-2.54 0.12,-3.95 0.06,-1.33 0.12,-2.66 0.12,-3.78 4.8,-102.56 56.74,-198.32 146.27,-269.61 89.41,-71.2 206.98,-110.39 331.08,-110.39 17.07,0 34.35,0.78 51.37,2.31 17.01,1.53 34.18,3.85 51.09,6.91l1.11 0.2 4.02 0.73 -0.06 -3.51 0 -0.93c-0.54,-31.05 10.11,-56.04 31.63,-74.26 28.39,-24.04 75.78,-36.22 140.85,-36.22 155.13,0 255.69,20.56 344.42,38.68 67.94,13.89 126.62,25.88 195.97,25.88 133.87,0 181.63,-44.9 194.54,-61.19 12.91,16.3 60.66,61.19 194.54,61.19 69.33,0 128.01,-12 195.98,-25.88 88.73,-18.14 189.27,-38.68 344.41,-38.68l-0.03 0.05z"/>
  </g>
 </g>
</svg>
