<?xml version="1.0" encoding="UTF-8"?>
<!DOCTYPE svg PUBLIC "-//W3C//DTD SVG 1.1//EN" "http://www.w3.org/Graphics/SVG/1.1/DTD/svg11.dtd">
<!-- Creator: CorelDRAW Standard 2021 (64-Bit) -->
<svg xmlns="http://www.w3.org/2000/svg" xml:space="preserve" width="3in" height="1in" version="1.1" shape-rendering="geometricPrecision" text-rendering="geometricPrecision" image-rendering="optimizeQuality" fill-rule="evenodd" clip-rule="evenodd"
viewBox="0 0 3000 1000"
 xmlns:xlink="http://www.w3.org/1999/xlink"
 xmlns:xodm="http://www.corel.com/coreldraw/odm/2003">
 <g id="Layer_x0020_1">
  <metadata id="CorelCorpID_0Corel-Layer"/>
  <g id="_2316827879808">
   <path id="Outline" fill="black" d="M2238.61 0.02c65.39,0 113.02,12.37 141.56,36.78 21.62,18.49 32.33,43.85 31.82,75.38l0 0.95c0,0 -0.06,3.55 -0.06,3.55l4.03 -0.74 1.11 -0.2c16.98,-3.09 34.24,-5.46 51.33,-7.02 17.1,-1.56 34.48,-2.34 51.63,-2.34 124.71,0 242.89,39.8 332.74,112.07 89.98,72.38 142.19,169.58 146.99,273.59 0,1.32 0.06,2.72 0.13,4.15 0.06,1.23 0.12,2.46 0.12,3.8 0,1.34 -0.05,2.56 -0.12,3.83 -0.06,1.4 -0.13,2.8 -0.13,4.01 -4.81,104.13 -57.03,201.34 -147,273.72 -89.86,72.28 -208.03,112.07 -332.74,112.07 -17.15,0 -34.53,-0.79 -51.63,-2.34 -17.09,-1.56 -34.35,-3.91 -51.33,-7.02l-1.11 -0.2 -4.03 -0.74 0.05 3.55 0 0.95c0.53,31.52 -10.17,56.89 -31.8,75.39 -28.53,24.41 -76.16,36.77 -141.56,36.77 -155.93,0 -256.99,-20.87 -346.17,-39.28 -68.28,-14.1 -127.24,-26.27 -196.92,-26.27 -134.56,0 -182.54,45.58 -195.52,62.12 -12.98,-16.54 -60.97,-62.12 -195.52,-62.12 -69.7,0 -128.65,12.19 -196.97,26.27 -89.17,18.42 -190.23,39.27 -346.13,39.27 -65.38,0 -113,-12.37 -141.56,-36.78 -21.63,-18.5 -32.33,-43.85 -31.8,-75.38l0 -0.95c0,0 0.08,-3.55 0.08,-3.55l-4.04 0.74 -1.11 0.21c-16.96,3.09 -34.24,5.46 -51.33,7.02 -17.1,1.56 -34.48,2.34 -51.63,2.34 -124.71,0 -242.89,-39.81 -332.74,-112.07 -89.98,-72.38 -142.19,-169.58 -147,-273.6 0,-1.25 -0.05,-2.58 -0.13,-4.13 -0.06,-1.23 -0.12,-2.48 -0.12,-3.83 0,-1.35 0.05,-2.58 0.12,-4.01 0.05,-1.35 0.12,-2.7 0.12,-3.83 4.83,-104.13 57.03,-201.34 147,-273.72 89.86,-72.28 208.03,-112.07 332.74,-112.07 17.15,0 34.52,0.78 51.63,2.34 17.09,1.56 34.35,3.91 51.35,7.02l1.11 0.21 4.04 0.74 -0.06 -3.56 0 -0.95c-0.54,-31.52 10.17,-56.89 31.79,-75.39 28.53,-24.41 76.16,-36.78 141.56,-36.78 155.91,0 256.98,20.87 346.15,39.28 68.28,14.1 127.26,26.27 196.95,26.27 134.54,0 182.54,-45.58 195.52,-62.13 12.98,16.54 60.97,62.13 195.52,62.13 69.68,0 128.65,-12.19 196.97,-26.27 89.17,-18.42 190.22,-39.28 346.13,-39.28l-0.03 0.06 0 -0.03 0 0z"/>
  </g>
  <g id="_2316827878368">
   <path id="Inner" fill="black" d="M2238.6 0.02c65.38,0 113.01,12.37 141.56,36.78 21.63,18.5 32.34,43.86 31.82,75.39l0 0.95c0,0 -0.06,3.56 -0.06,3.56l4.03 -0.74 1.11 -0.2c16.98,-3.09 34.24,-5.46 51.33,-7.01 17.11,-1.55 34.48,-2.35 51.63,-2.35 124.72,0 242.89,39.8 332.74,112.07 89.99,72.39 142.18,169.59 146.99,273.59 0,1.31 0.06,2.73 0.14,4.15 0.06,1.22 0.12,2.47 0.12,3.8 0,1.34 -0.06,2.55 -0.12,3.83 -0.06,1.4 -0.14,2.8 -0.14,4.01 -4.8,104.13 -57.02,201.34 -147,273.72 -89.86,72.27 -208.02,112.07 -332.74,112.07 -17.16,0 -34.53,-0.79 -51.62,-2.34 -17.09,-1.57 -34.36,-3.91 -51.33,-7.01l-1.11 -0.2 -4.04 -0.74 0.06 3.55 0 0.94c0.52,31.53 -10.16,56.89 -31.8,75.39 -28.54,24.41 -76.16,36.78 -141.56,36.78 -155.93,0 -256.98,-20.87 -346.17,-39.28 -68.29,-14.09 -127.25,-26.27 -196.92,-26.27 -134.56,0 -182.54,45.59 -195.52,62.11 -12.98,-16.54 -60.97,-62.11 -195.52,-62.11 -69.7,0 -128.65,12.19 -196.96,26.27 -89.17,18.43 -190.23,39.28 -346.14,39.28 -65.38,0 -113,-12.38 -141.56,-36.78 -21.64,-18.5 -32.32,-43.86 -31.8,-75.38l0 -0.94c0,0 0.07,-3.55 0.07,-3.55l-4.04 0.74 -1.11 0.2c-16.96,3.08 -34.23,5.47 -51.33,7.01 -17.11,1.56 -34.48,2.34 -51.63,2.34 -124.72,0 -242.89,-39.8 -332.74,-112.07 -89.99,-72.39 -142.18,-169.59 -147,-273.59 0,-1.25 -0.06,-2.57 -0.14,-4.14 -0.06,-1.24 -0.11,-2.48 -0.11,-3.83 0,-1.35 0.05,-2.57 0.11,-4.01 0.06,-1.35 0.11,-2.7 0.11,-3.83 4.82,-104.12 57.02,-201.34 147,-273.72 89.86,-72.28 208.02,-112.07 332.74,-112.07 17.16,0 34.52,0.79 51.63,2.35 17.09,1.55 34.35,3.91 51.35,7.01l1.11 0.2 4.04 0.74 -0.06 -3.57 0 -0.94c-0.54,-31.53 10.16,-56.89 31.79,-75.39 28.54,-24.4 76.16,-36.78 141.56,-36.78 155.91,0 256.98,20.87 346.15,39.27 68.28,14.11 127.25,26.27 196.95,26.27 134.54,0 182.54,-45.59 195.52,-62.11 12.98,16.55 60.97,62.11 195.52,62.11 69.67,0 128.65,-12.18 196.96,-26.27 89.17,-18.41 190.22,-39.27 346.14,-39.27l-0.04 0.05 0.02 -0.02 -0.01 0z"/>
  </g>
 </g>
</svg>
