<?xml version="1.0" encoding="UTF-8"?>
<!DOCTYPE svg PUBLIC "-//W3C//DTD SVG 1.1//EN" "http://www.w3.org/Graphics/SVG/1.1/DTD/svg11.dtd">
<!-- Creator: CorelDRAW Standard 2021 (64-Bit) -->
<svg xmlns="http://www.w3.org/2000/svg" xml:space="preserve" width="3.15in" height="1.65in" version="1.1" style="shape-rendering:geometricPrecision; text-rendering:geometricPrecision; image-rendering:optimizeQuality; fill-rule:evenodd; clip-rule:evenodd"
viewBox="0 0 3150 1650"
 xmlns:xlink="http://www.w3.org/1999/xlink"
 xmlns:xodm="http://www.corel.com/coreldraw/odm/2003">
 <defs>
  <style type="text/css">
   <![CDATA[
    .str0 {stroke:#373435;stroke-width:3;stroke-miterlimit:22.9256}
    .fil0 {fill:black;fill-rule:nonzero}
    .fil1 {fill:white;fill-rule:nonzero}
   ]]>
  </style>
 </defs>
 <g id="Layer_x0020_1">
  <metadata id="CorelCorpID_0Corel-Layer"/>
  <path id="Outline" class="fil0" d="M1574.98 330.33l18.02 25.92c3.64,5.2 39.37,50.83 173.94,50.83 65.58,0 122.2,-10.93 187.75,-23.57 88.87,-17.15 189.57,-36.58 345.46,-36.58 70.74,0 123.17,13.23 155.81,39.33 20.18,16.13 32.53,36.72 36.7,61.19l0.45 2.63 3.28 -0.42c8.96,-1.16 17.99,-2.11 26.83,-2.87 17.54,-1.5 35.44,-2.25 53.2,-2.25 128.53,0 250.34,38.37 343,108.04 92.97,69.9 146.91,163.82 151.88,264.44l0.12 3.4c0.09,1.81 0.15,3.16 0.15,4.6 0,1.49 -0.06,2.87 -0.14,4.26l-0.03 0.56c-0.05,1 -0.08,1.7 -0.06,2.23 -5,101.25 -58.94,195.5 -151.92,265.39 -92.65,69.67 -214.46,108.03 -343,108.03 -17.66,0 -35.56,-0.76 -53.19,-2.25 -8.83,-0.76 -17.86,-1.72 -26.86,-2.87l-3.26 -0.42 -0.45 2.63c-4.17,24.46 -16.52,45.04 -36.7,61.18 -32.66,26.1 -85.09,39.33 -155.81,39.33 -155.84,0 -256.5,-19.42 -345.52,-36.6 -65.55,-12.65 -122.17,-23.56 -187.69,-23.56 -134.61,0 -170.31,45.63 -173.94,50.83l-18.02 25.9 -18.03 -25.91c-3.63,-5.2 -39.28,-50.82 -173.94,-50.82 -65.51,0 -122.06,10.91 -187.75,23.58 -88.88,17.15 -189.61,36.58 -345.46,36.58 -70.73,0 -123.15,-13.23 -155.8,-39.33 -20.19,-16.13 -32.54,-36.72 -36.7,-61.19l-0.45 -2.63 -3.28 0.42c-8.91,1.15 -17.94,2.11 -26.83,2.87 -17.66,1.49 -35.56,2.25 -53.2,2.25 -128.54,0 -250.35,-38.37 -343,-108.03 -92.96,-69.93 -146.91,-163.85 -151.89,-264.42 -0.01,-1.65 -0.06,-2.57 -0.12,-3.5 -0.08,-1.66 -0.14,-3.05 -0.14,-4.55 0,-1.5 0.05,-2.9 0.13,-4.29l0.03 -0.56c0.04,-0.92 0.08,-1.68 0.08,-2.28 5,-101.19 58.94,-195.42 151.92,-265.32 92.66,-69.67 214.48,-108.04 343,-108.04 17.74,0 35.64,0.76 53.19,2.25 8.89,0.76 17.95,1.72 26.93,2.87l3.26 0.42 0.45 -2.63c4.19,-24.52 16.52,-45.1 36.62,-61.19 32.66,-26.1 85.09,-39.33 155.81,-39.33 155.89,0 256.58,19.43 345.43,36.57 65.55,12.66 122.17,23.58 187.79,23.58 134.68,0 170.31,-45.63 173.94,-50.83l18.02 -25.91 -0.01 0.03 0.01 0 -0.01 0 0 0zm0 -5.33l-20.85 29.97c-3.52,5.06 -38.28,49.5 -171.1,49.5 -65.24,0 -121.68,-10.9 -187.07,-23.51 -89.01,-17.18 -189.87,-36.65 -346.16,-36.65 -71.62,0 -124.8,13.49 -158.09,40.09 -20.65,16.51 -33.22,37.39 -37.54,62.69 -9.04,-1.16 -18.08,-2.13 -27.09,-2.9 -17.7,-1.51 -35.72,-2.27 -53.54,-2.27 -129.36,0 -251.96,38.61 -345.21,108.74 -93.59,70.37 -147.89,164.93 -152.93,267.11 0,0.82 -0.05,1.71 -0.1,2.84 -0.06,1.42 -0.13,2.84 -0.13,4.39 0,1.53 0.06,2.96 0.14,4.66 0.05,0.91 0.09,1.81 0.12,3.42 5.02,101.33 59.33,195.9 152.92,266.27 93.26,70.13 215.85,108.74 345.21,108.74 17.76,0 35.77,-0.76 53.54,-2.26 8.93,-0.76 17.9,-1.72 27,-2.9 4.26,25.06 16.85,46.08 37.63,62.68 33.28,26.59 86.47,40.09 158.09,40.09 156.28,0 257.16,-19.47 346.3,-36.67 65.32,-12.6 121.74,-23.49 186.91,-23.49 132.84,0 167.58,44.44 171.1,49.5l20.85 29.97 20.84 -29.96c3.54,-5.07 38.28,-49.51 171.12,-49.51 65.18,0 121.59,10.89 187.07,23.52 89,17.17 189.87,36.65 346.15,36.65 71.62,0 124.81,-13.49 158.11,-40.09 20.75,-16.59 33.36,-37.61 37.63,-62.67 9,1.15 18.03,2.11 27.02,2.89 17.76,1.5 35.77,2.26 53.53,2.26 129.36,0 251.96,-38.61 345.21,-108.74 93.59,-70.35 147.91,-164.93 152.94,-267.19 0,-0.75 0.04,-1.53 0.09,-2.8 0.06,-1.42 0.14,-2.83 0.14,-4.35 0,-1.52 -0.06,-2.95 -0.17,-4.9l-0.1 -3.18c-5.01,-101.34 -59.31,-195.91 -152.91,-266.27 -93.26,-70.11 -215.85,-108.74 -345.21,-108.74 -17.84,0 -35.86,0.76 -53.54,2.27 -8.92,0.76 -17.9,1.71 -27.02,2.89 -4.27,-25.06 -16.87,-46.08 -37.63,-62.68 -33.28,-26.6 -86.47,-40.09 -158.11,-40.09 -156.27,0 -257.15,19.47 -346.22,36.66 -65.35,12.6 -121.8,23.5 -186.99,23.5 -132.84,0 -167.58,-44.44 -171.12,-49.5l-20.84 -29.97 0 0 0.01 -0.01 -0.01 0.01 0 0 0 -0z"/>
  <path id="Inner" class="fil1 str0" d="M2300.17 366.15c64.2,0 110.96,11.35 138.98,33.75 21.23,16.97 31.74,40.25 31.24,69.18l0 0.87c0,0 -0.06,3.26 -0.06,3.26l3.96 -0.68 1.09 -0.19c16.67,-2.84 33.62,-5.01 50.39,-6.44 16.79,-1.43 33.85,-2.15 50.69,-2.15 122.44,0 238.47,36.53 326.69,102.85 88.35,66.43 139.6,155.63 144.32,251.08 0,1.21 0.06,2.5 0.13,3.81 0.05,1.13 0.12,2.26 0.12,3.49 0,1.23 -0.05,2.35 -0.12,3.52 -0.06,1.28 -0.13,2.57 -0.13,3.68 -4.72,95.56 -55.99,184.77 -144.33,251.2 -88.22,66.33 -204.24,102.85 -326.69,102.85 -16.84,0 -33.9,-0.72 -50.69,-2.15 -16.78,-1.43 -33.73,-3.59 -50.39,-6.44l-1.09 -0.19 -3.96 -0.68 0.05 3.26 0 0.87c0.52,28.93 -9.98,52.21 -31.22,69.18 -28.01,22.4 -74.77,33.75 -138.98,33.75 -153.09,0 -252.31,-19.15 -339.87,-36.05 -67.04,-12.94 -124.93,-24.11 -193.34,-24.11 -132.11,0 -179.22,41.83 -191.96,57.01 -12.74,-15.18 -59.86,-57.01 -191.96,-57.01 -68.43,0 -126.31,11.18 -193.38,24.11 -87.55,16.9 -186.77,36.04 -339.84,36.04 -64.19,0 -110.95,-11.35 -138.98,-33.75 -21.24,-16.98 -31.74,-40.25 -31.22,-69.18l0 -0.87c0,0 0.08,-3.26 0.08,-3.26l-3.97 0.68 -1.09 0.19c-16.65,2.84 -33.61,5.01 -50.39,6.44 -16.79,1.43 -33.85,2.15 -50.69,2.15 -122.44,0 -238.47,-36.53 -326.69,-102.85 -88.35,-66.43 -139.6,-155.63 -144.33,-251.09 0,-1.15 -0.05,-2.37 -0.13,-3.79 -0.05,-1.13 -0.12,-2.28 -0.12,-3.52 0,-1.24 0.05,-2.37 0.12,-3.68 0.05,-1.24 0.12,-2.48 0.12,-3.52 4.74,-95.56 55.99,-184.77 144.33,-251.2 88.22,-66.33 204.24,-102.85 326.69,-102.85 16.84,0 33.89,0.72 50.69,2.15 16.78,1.43 33.73,3.59 50.41,6.44l1.09 0.19 3.97 0.68 -0.06 -3.27 0 -0.87c-0.53,-28.93 9.98,-52.21 31.21,-69.18 28.01,-22.4 74.77,-33.75 138.98,-33.75 153.07,0 252.3,19.15 339.85,36.04 67.04,12.94 124.94,24.11 193.37,24.11 132.1,0 179.22,-41.83 191.96,-57.01 12.74,15.18 59.86,57.01 191.96,57.01 68.41,0 126.31,-11.18 193.38,-24.11 87.55,-16.9 186.76,-36.04 339.84,-36.04l0 0.03 -0.03 0.02 0 0 0 -0zm0 -2.6c-153.47,0 -253.81,19.37 -340.6,36.11 -66.22,12.78 -124.57,24.04 -192.62,24.04 -144.61,0 -186.02,-50.79 -191.96,-59.33 -5.94,8.54 -47.35,59.33 -191.96,59.33 -68.04,0 -126.38,-11.26 -192.61,-24.04 -86.8,-16.75 -187.14,-36.11 -340.6,-36.11 -72.26,0 -115.85,14.2 -141.25,34.5 -25.36,20.27 -32.62,46.67 -32.18,71.06l0 0.87c0,0 -1.07,-0.19 -1.07,-0.19 -16.62,-2.84 -33.55,-5.02 -50.73,-6.48 -16.75,-1.43 -33.77,-2.17 -51.03,-2.17 -127.7,0 -243.61,39.43 -328.9,103.56 -85.64,64.4 -140.44,153.7 -145.36,252.99 0,1.17 -0.06,2.43 -0.12,3.69 -0.05,1.18 -0.12,2.34 -0.12,3.61 0,1.27 0.05,2.45 0.12,3.61 0.06,1.26 0.12,2.52 0.12,3.69 4.92,99.3 59.71,188.6 145.36,252.99 85.29,64.13 201.2,103.56 328.9,103.56 17.26,0 34.28,-0.74 51.03,-2.17 17.18,-1.46 34.11,-3.63 50.73,-6.48l1.09 -0.19 0 0.87c-0.45,24.4 6.81,50.79 32.17,71.06 25.4,20.3 69,34.51 141.25,34.51 153.46,0 253.82,-19.37 340.6,-36.11 66.22,-12.78 124.57,-24.04 192.61,-24.04 144.61,0 186.02,50.79 191.96,59.33 5.94,-8.54 47.35,-59.33 191.96,-59.33 68.04,0 126.39,11.26 192.62,24.04 86.8,16.75 187.14,36.11 340.6,36.11 72.26,0 115.85,-14.21 141.25,-34.51 25.36,-20.27 32.62,-46.67 32.18,-71.06l0 -0.87c0,0 1.07,0.19 1.07,0.19 16.62,2.84 33.54,5.02 50.73,6.48 16.75,1.43 33.77,2.17 51.03,2.17 127.7,0 243.61,-39.43 328.9,-103.56 85.64,-64.4 140.44,-153.7 145.36,-252.99 0,-1.18 0.06,-2.44 0.13,-3.69 0.06,-1.18 0.12,-2.34 0.12,-3.61 0,-1.27 -0.06,-2.44 -0.12,-3.61 -0.06,-1.25 -0.13,-2.51 -0.13,-3.69 -4.92,-99.3 -59.71,-188.59 -145.36,-252.99 -85.29,-64.13 -201.2,-103.56 -328.9,-103.56 -17.26,0 -34.28,0.74 -51.03,2.17 -17.19,1.46 -34.11,3.63 -50.73,6.48l-1.09 0.19 0 -0.87c0.44,-24.4 -6.81,-50.79 -32.17,-71.06 -25.4,-20.3 -69,-34.5 -141.25,-34.5l0 0z" data-name="Inner"/>
 </g>
</svg>
