<?xml version="1.0" encoding="UTF-8"?>
<!DOCTYPE svg PUBLIC "-//W3C//DTD SVG 1.1//EN" "http://www.w3.org/Graphics/SVG/1.1/DTD/svg11.dtd">
<!-- Creator: CorelDRAW Standard 2021 (64-Bit) -->
<svg xmlns="http://www.w3.org/2000/svg" xml:space="preserve" width="3.15in" height="1.65in" version="1.1" style="shape-rendering:geometricPrecision; text-rendering:geometricPrecision; image-rendering:optimizeQuality; fill-rule:evenodd; clip-rule:evenodd"
viewBox="0 0 3150 1650"
 xmlns:xlink="http://www.w3.org/1999/xlink"
 xmlns:xodm="http://www.corel.com/coreldraw/odm/2003">
 <defs>
  <style type="text/css">
   <![CDATA[
    .str0 {stroke:#373435;stroke-width:3;stroke-miterlimit:22.9256}
    .fil0 {fill:black;fill-rule:nonzero}
    .fil1 {fill:white;fill-rule:nonzero}
   ]]>
  </style>
 </defs>
 <g id="Layer_x0020_1">
  <metadata id="CorelCorpID_0Corel-Layer"/>
  <path id="Inner" class="fil1 str0" fill="none" d="M2300.17 366.15c64.2,0 110.96,11.35 138.98,33.75 21.23,16.97 31.74,40.25 31.24,69.18l0 0.87c0,0 -0.06,3.26 -0.06,3.26l3.96 -0.68 1.09 -0.19c16.67,-2.84 33.62,-5.01 50.39,-6.44 16.79,-1.43 33.85,-2.15 50.69,-2.15 122.44,0 238.47,36.53 326.69,102.85 88.35,66.43 139.6,155.63 144.32,251.08 0,1.21 0.06,2.5 0.13,3.81 0.05,1.13 0.12,2.26 0.12,3.49 0,1.23 -0.05,2.35 -0.12,3.52 -0.06,1.28 -0.13,2.57 -0.13,3.68 -4.72,95.56 -55.99,184.77 -144.33,251.2 -88.22,66.33 -204.24,102.85 -326.69,102.85 -16.84,0 -33.9,-0.72 -50.69,-2.15 -16.78,-1.43 -33.73,-3.59 -50.39,-6.44l-1.09 -0.19 -3.96 -0.68 0.05 3.26 0 0.87c0.52,28.93 -9.98,52.21 -31.22,69.18 -28.01,22.4 -74.77,33.75 -138.98,33.75 -153.09,0 -252.31,-19.15 -339.87,-36.05 -67.04,-12.94 -124.93,-24.11 -193.34,-24.11 -132.11,0 -179.22,41.83 -191.96,57.01 -12.74,-15.18 -59.86,-57.01 -191.96,-57.01 -68.43,0 -126.31,11.18 -193.38,24.11 -87.55,16.9 -186.77,36.04 -339.84,36.04 -64.19,0 -110.95,-11.35 -138.98,-33.75 -21.24,-16.98 -31.74,-40.25 -31.22,-69.18l0 -0.87c0,0 0.08,-3.26 0.08,-3.26l-3.97 0.68 -1.09 0.19c-16.65,2.84 -33.61,5.01 -50.39,6.44 -16.79,1.43 -33.85,2.15 -50.69,2.15 -122.44,0 -238.47,-36.53 -326.69,-102.85 -88.35,-66.43 -139.6,-155.63 -144.33,-251.09 0,-1.15 -0.05,-2.37 -0.13,-3.79 -0.05,-1.13 -0.12,-2.28 -0.12,-3.52 0,-1.24 0.05,-2.37 0.12,-3.68 0.05,-1.24 0.12,-2.48 0.12,-3.52 4.74,-95.56 55.99,-184.77 144.33,-251.2 88.22,-66.33 204.24,-102.85 326.69,-102.85 16.84,0 33.89,0.72 50.69,2.15 16.78,1.43 33.73,3.59 50.41,6.44l1.09 0.19 3.97 0.68 -0.06 -3.27 0 -0.87c-0.53,-28.93 9.98,-52.21 31.21,-69.18 28.01,-22.4 74.77,-33.75 138.98,-33.75 153.07,0 252.3,19.15 339.85,36.04 67.04,12.94 124.94,24.11 193.37,24.11 132.1,0 179.22,-41.83 191.96,-57.01 12.74,15.18 59.86,57.01 191.96,57.01 68.41,0 126.31,-11.18 193.38,-24.11 87.55,-16.9 186.76,-36.04 339.84,-36.04l0 0.03 -0.03 0.02 0 0 0 -0zm0 -2.6c-153.47,0 -253.81,19.37 -340.6,36.11 -66.22,12.78 -124.57,24.04 -192.62,24.04 -144.61,0 -186.02,-50.79 -191.96,-59.33 -5.94,8.54 -47.35,59.33 -191.96,59.33 -68.04,0 -126.38,-11.26 -192.61,-24.04 -86.8,-16.75 -187.14,-36.11 -340.6,-36.11 -72.26,0 -115.85,14.2 -141.25,34.5 -25.36,20.27 -32.62,46.67 -32.18,71.06l0 0.87c0,0 -1.07,-0.19 -1.07,-0.19 -16.62,-2.84 -33.55,-5.02 -50.73,-6.48 -16.75,-1.43 -33.77,-2.17 -51.03,-2.17 -127.7,0 -243.61,39.43 -328.9,103.56 -85.64,64.4 -140.44,153.7 -145.36,252.99 0,1.17 -0.06,2.43 -0.12,3.69 -0.05,1.18 -0.12,2.34 -0.12,3.61 0,1.27 0.05,2.45 0.12,3.61 0.06,1.26 0.12,2.52 0.12,3.69 4.92,99.3 59.71,188.6 145.36,252.99 85.29,64.13 201.2,103.56 328.9,103.56 17.26,0 34.28,-0.74 51.03,-2.17 17.18,-1.46 34.11,-3.63 50.73,-6.48l1.09 -0.19 0 0.87c-0.45,24.4 6.81,50.79 32.17,71.06 25.4,20.3 69,34.51 141.25,34.51 153.46,0 253.82,-19.37 340.6,-36.11 66.22,-12.78 124.57,-24.04 192.61,-24.04 144.61,0 186.02,50.79 191.96,59.33 5.94,-8.54 47.35,-59.33 191.96,-59.33 68.04,0 126.39,11.26 192.62,24.04 86.8,16.75 187.14,36.11 340.6,36.11 72.26,0 115.85,-14.21 141.25,-34.51 25.36,-20.27 32.62,-46.67 32.18,-71.06l0 -0.87c0,0 1.07,0.19 1.07,0.19 16.62,2.84 33.54,5.02 50.73,6.48 16.75,1.43 33.77,2.17 51.03,2.17 127.7,0 243.61,-39.43 328.9,-103.56 85.64,-64.4 140.44,-153.7 145.36,-252.99 0,-1.18 0.06,-2.44 0.13,-3.69 0.06,-1.18 0.12,-2.34 0.12,-3.61 0,-1.27 -0.06,-2.44 -0.12,-3.61 -0.06,-1.25 -0.13,-2.51 -0.13,-3.69 -4.92,-99.3 -59.71,-188.59 -145.36,-252.99 -85.29,-64.13 -201.2,-103.56 -328.9,-103.56 -17.26,0 -34.28,0.74 -51.03,2.17 -17.19,1.46 -34.11,3.63 -50.73,6.48l-1.09 0.19 0 -0.87c0.44,-24.4 -6.81,-50.79 -32.17,-71.06 -25.4,-20.3 -69,-34.5 -141.25,-34.5l0 0z" data-name="Inner"/>
 </g>
</svg>
