<?xml version="1.0" encoding="UTF-8"?>
<!DOCTYPE svg PUBLIC "-//W3C//DTD SVG 1.1//EN" "http://www.w3.org/Graphics/SVG/1.1/DTD/svg11.dtd">
<!-- Creator: CorelDRAW Standard 2021 (64-Bit) -->
<svg xmlns="http://www.w3.org/2000/svg" xml:space="preserve" width="3in" height="1.5in" version="1.1" shape-rendering="geometricPrecision" text-rendering="geometricPrecision" image-rendering="optimizeQuality" fill-rule="evenodd" clip-rule="evenodd"
viewBox="0 0 3000 1500"
 xmlns:xlink="http://www.w3.org/1999/xlink"
 xmlns:xodm="http://www.corel.com/coreldraw/odm/2003">
 <g id="Layer_x0020_1">
  <metadata id="CorelCorpID_0Corel-Layer"/>
  <g id="_2316827879808">
   <path id="Outline" fill="black" d="M1542.26 -1.31l0 3.47c90.88,0 190.27,6.93 303.8,21.12l1153.41 168.75 0.52 0 0 1116.81 -1.03 0c0,0 -1152.83,168.71 -1152.83,168.71 -113.61,14.21 -213.01,21.13 -303.86,21.13 -14.23,0 -28.41,-0.17 -42.35,-0.54 -13.74,0.35 -27.94,0.54 -42.17,0.54 -90.86,0 -190.27,-6.92 -303.8,-21.11l-1153.43 -168.74 -0.54 0 0 -1116.82 1.03 0c0,0 1152.83,-168.71 1152.83,-168.71 113.61,-14.21 213.01,-21.13 303.86,-21.13 14.23,0 28.41,0.17 42.35,0.54 13.74,-0.35 27.94,-0.54 42.17,-0.54l0 -3.47 0.03 -0.01 0.01 0z"/>
  </g>
  <g id="_2316827878368">
   <path id="Inner" fill="black" d="M1542.26 -1.31l0 3.48c90.87,0 190.26,6.92 303.8,21.11l1153.41 168.76 0.53 0 0 1116.81 -1.04 0c0,0 -1152.83,168.71 -1152.83,168.71 -113.61,14.21 -213.01,21.13 -303.86,21.13 -14.23,0 -28.41,-0.17 -42.35,-0.54 -13.74,0.35 -27.95,0.54 -42.17,0.54 -90.85,0 -190.27,-6.92 -303.79,-21.11l-1153.43 -168.74 -0.54 0 0 -1116.83 1.03 0c0,0 1152.83,-168.71 1152.83,-168.71 113.61,-14.21 213.01,-21.13 303.86,-21.13 14.23,0 28.41,0.18 42.35,0.54 13.74,-0.35 27.95,-0.54 42.17,-0.54l0 -3.46 0.04 -0.01 -0.01 0z"/>
  </g>
 </g>
</svg>
