<?xml version="1.0" encoding="UTF-8"?>
<!DOCTYPE svg PUBLIC "-//W3C//DTD SVG 1.1//EN" "http://www.w3.org/Graphics/SVG/1.1/DTD/svg11.dtd">
<!-- Creator: CorelDRAW Standard 2021 (64-Bit) -->
<svg xmlns="http://www.w3.org/2000/svg" xml:space="preserve" width="3.15in" height="1.65in" version="1.1" style="shape-rendering:geometricPrecision; text-rendering:geometricPrecision; image-rendering:optimizeQuality; fill-rule:evenodd; clip-rule:evenodd"
viewBox="0 0 3150 1650"
 xmlns:xlink="http://www.w3.org/1999/xlink"
 xmlns:xodm="http://www.corel.com/coreldraw/odm/2003">
 <defs>
  <style type="text/css">
   <![CDATA[
    .str0 {stroke:#373435;stroke-width:3;stroke-miterlimit:22.9256}
    .fil1 {fill:none;fill-rule:nonzero}
    .fil0 {fill:black;fill-rule:nonzero}
   ]]>
  </style>
 </defs>
 <g id="Layer_x0020_1">
  <metadata id="CorelCorpID_0Corel-Layer"/>
  <g id="_1646755436288">
   <path id="Outline" class="fil0" d="M1606.57 244.28c68.92,0 144.16,5.23 229.95,15.97l862 126.1 19.7 0 0 876.92 -20.08 0.42 -861.13 126.02c-86.13,10.79 -161.5,16.03 -230.37,16.03 -10.45,0 -21.07,-0.13 -31.7,-0.39 -10.51,0.26 -21.13,0.39 -31.58,0.39 -68.87,0 -144.07,-5.23 -229.89,-15.97l-861.99 -126.11 -19.71 0 0 -876.91 20.08 -0.42 861.13 -126.02c86.15,-10.79 161.53,-16.03 230.44,-16.03 10.63,0 21.24,0.13 31.63,0.39 10.27,-0.26 20.87,-0.39 31.51,-0.39l0.01 0 -0.01 0zm0 -2.61c-10.63,0 -21.16,0.13 -31.57,0.39 -10.42,-0.26 -20.95,-0.39 -31.57,-0.39 -68.99,0 -144.32,5.23 -230.76,16.05l-861.19 126.02 -22.31 0.44 0 882.07 22.31 0 861.61 126.08c85.99,10.76 161.31,15.99 230.26,15.99 10.66,0 21.2,-0.13 31.65,-0.39 10.44,0.25 20.99,0.39 31.63,0.39 68.96,0 144.28,-5.23 230.7,-16.05l861.19 -126.03 22.31 -0.44 0 -882.06 -22.31 0 -861.61 -126.07c-85.99,-10.77 -161.33,-16 -230.32,-16l0 0 -0.01 0 -0.01 0z"/>
  </g>
  <g id="_1646755434608">
   <path id="Inner" class="fil1 str0" d="M1606.62 262.5l0 2.6c68,0 142.37,5.18 227.32,15.8l863.06 126.27 0.39 0 0 835.66 -0.77 0c0,0 -862.63,126.24 -862.63,126.24 -85.01,10.63 -159.39,15.81 -227.37,15.81 -10.65,0 -21.26,-0.13 -31.69,-0.4 -10.28,0.26 -20.91,0.4 -31.55,0.4 -67.99,0 -142.37,-5.18 -227.32,-15.8l-863.07 -126.26 -0.4 0 0 -835.67 0.77 0c0,0 862.63,-126.24 862.63,-126.24 85.01,-10.63 159.39,-15.81 227.37,-15.81 10.65,0 21.26,0.13 31.69,0.4 10.28,-0.26 20.91,-0.4 31.55,-0.4l0 -2.6 0.01 0 0.01 0zm0 0c-10.66,0 -21.19,0.13 -31.63,0.4 -10.43,-0.26 -20.98,-0.4 -31.63,-0.4 -71.56,0 -147.93,5.84 -227.7,15.83l-862.68 126.24 -3 0 0 840.84 3 0 862.68 126.24c79.77,9.98 156.15,15.83 227.7,15.83 10.66,0 21.19,-0.13 31.63,-0.4 10.43,0.26 20.98,0.4 31.63,0.4 71.56,0 147.93,-5.84 227.7,-15.83l862.68 -126.24 3 0 0 -840.84 -3 0 -862.68 -126.24c-79.77,-9.98 -156.15,-15.83 -227.7,-15.83l0 0z" data-name="Inner"/>
   <path id="_1" class="fil1 str0" d="M1606.62 262.5l0 2.6c68,0 142.37,5.18 227.32,15.8l863.06 126.27 0.39 0 0 835.66 -0.77 0c0,0 -862.63,126.24 -862.63,126.24 -85.01,10.63 -159.39,15.81 -227.37,15.81 -10.65,0 -21.26,-0.13 -31.69,-0.4 -10.28,0.26 -20.91,0.4 -31.55,0.4 -67.99,0 -142.37,-5.18 -227.32,-15.8l-863.07 -126.26 -0.4 0 0 -835.67 0.77 0c0,0 862.63,-126.24 862.63,-126.24 85.01,-10.63 159.39,-15.81 227.37,-15.81 10.65,0 21.26,0.13 31.69,0.4 10.28,-0.26 20.91,-0.4 31.55,-0.4l0 -2.6m0.01 0c-10.66,0 -21.19,0.13 -31.63,0.4 -10.43,-0.26 -20.98,-0.4 -31.63,-0.4 -71.56,0 -147.93,5.84 -227.7,15.83l-862.68 126.24 -3 0 0 840.84 3 0 862.68 126.24c79.77,9.98 156.15,15.83 227.7,15.83 10.66,0 21.19,-0.13 31.63,-0.4 10.43,0.26 20.98,0.4 31.63,0.4 71.56,0 147.93,-5.84 227.7,-15.83l862.68 -126.24 3 0 0 -840.84 -3 0 -862.68 -126.24c-79.77,-9.98 -156.15,-15.83 -227.7,-15.83l0 0z"/>
  </g>
 </g>
</svg>
