<?xml version="1.0" encoding="UTF-8"?>
<!DOCTYPE svg PUBLIC "-//W3C//DTD SVG 1.1//EN" "http://www.w3.org/Graphics/SVG/1.1/DTD/svg11.dtd">
<!-- Creator: CorelDRAW Standard 2021 (64-Bit) -->
<svg xmlns="http://www.w3.org/2000/svg" xml:space="preserve" width="3.15in" height="1.65in" version="1.1" style="shape-rendering:geometricPrecision; text-rendering:geometricPrecision; image-rendering:optimizeQuality; fill-rule:evenodd; clip-rule:evenodd"
viewBox="0 0 3150 1650"
 xmlns:xlink="http://www.w3.org/1999/xlink"
 xmlns:xodm="http://www.corel.com/coreldraw/odm/2003">
 <defs>
  <style type="text/css">
   <![CDATA[
    .str0 {stroke:#373435;stroke-width:3;stroke-miterlimit:22.9256}
    .fil1 {fill:none;fill-rule:nonzero}
    .fil0 {fill:black;fill-rule:nonzero}
   ]]>
  </style>
 </defs>
 <g id="Layer_x0020_1">
  <metadata id="CorelCorpID_0Corel-Layer"/>
  <g>
   <path id="Inner" class="fil1 str0" fill="none" d="M1606.62 262.5l0 2.6c68,0 142.37,5.18 227.32,15.8l863.06 126.27 0.39 0 0 835.66 -0.77 0c0,0 -862.63,126.24 -862.63,126.24 -85.01,10.63 -159.39,15.81 -227.37,15.81 -10.65,0 -21.26,-0.13 -31.69,-0.4 -10.28,0.26 -20.91,0.4 -31.55,0.4 -67.99,0 -142.37,-5.18 -227.32,-15.8l-863.07 -126.26 -0.4 0 0 -835.67 0.77 0c0,0 862.63,-126.24 862.63,-126.24 85.01,-10.63 159.39,-15.81 227.37,-15.81 10.65,0 21.26,0.13 31.69,0.4 10.28,-0.26 20.91,-0.4 31.55,-0.4l0 -2.6 0.01 0 0.01 0zm0 0c-10.66,0 -21.19,0.13 -31.63,0.4 -10.43,-0.26 -20.98,-0.4 -31.63,-0.4 -71.56,0 -147.93,5.84 -227.7,15.83l-862.68 126.24 -3 0 0 840.84 3 0 862.68 126.24c79.77,9.98 156.15,15.83 227.7,15.83 10.66,0 21.19,-0.13 31.63,-0.4 10.43,0.26 20.98,0.4 31.63,0.4 71.56,0 147.93,-5.84 227.7,-15.83l862.68 -126.24 3 0 0 -840.84 -3 0 -862.68 -126.24c-79.77,-9.98 -156.15,-15.83 -227.7,-15.83l0 0z" data-name="Inner"/>
  </g>
 </g>
</svg>
