<?xml version="1.0" encoding="UTF-8"?>
<svg id="Layer_1" data-name="Layer 1" xmlns="http://www.w3.org/2000/svg" width="220" height="108" viewBox="0 0 220 108">
  <defs>
    <style>
      .cls-1 {
        fill: #bababa;
      }
    </style>
  </defs>
  <path id="Outline" d="M56.148.25c1.563,0,3.085.555,4.176,1.525l11.743,10.272.071.062h19.987v-7.835c0-2.025,1.647-3.672,3.672-3.672h14.181c2.025,0,3.672,1.647,3.672,3.672v7.835h67.057c1.003,0,1.974.417,2.664,1.145l31.365,33.06c1.027,1.082,1.298,2.606.709,3.976-.589,1.371-1.882,2.222-3.373,2.222h-4.409v49.122c0,3.372-2.743,6.115-6.115,6.115H16.752c-3.372,0-6.115-2.743-6.115-6.115v-49.122H3.93c-1.875,0-3.005-1.23-3.437-2.38-.432-1.151-.391-2.82,1.02-4.055L52.173,1.765c.999-.977,2.41-1.515,3.975-1.515M56.148,0c-1.539,0-3.059.518-4.15,1.586L1.348,45.888c-2.726,2.384-1.04,6.874,2.582,6.874h6.457v48.872c0,3.515,2.85,6.365,6.365,6.365h184.795c3.516,0,6.365-2.85,6.365-6.365v-48.872h4.159c3.444,0,5.215-4.122,2.845-6.62l-31.365-33.06c-.74-.781-1.769-1.223-2.845-1.223h-66.807v-7.585c0-2.166-1.756-3.922-3.922-3.922h-14.181c-2.166,0-3.922,1.756-3.922,3.922v7.585h-19.643L60.488,1.586c-1.178-1.046-2.769-1.586-4.34-1.586h0Z"/>
  <path id="Inner" class="cls-1" d="M213.433,47.449l-31.329-32.982c-.384-.405-.924-.637-1.482-.637h-68.603V4.392c0-1.126-.916-2.042-2.044-2.042h-14.164c-1.127,0-2.044.916-2.044,2.042v9.438h-22.197l-12.269-10.719c-.796-.706-1.922-1.111-3.092-1.111-1.121,0-2.154.382-2.831,1.044L2.706,47.316c-.99.865-.686,1.945-.569,2.255.117.311.601,1.324,1.915,1.324h8.322v50.626c0,2.469,2.011,4.479,4.484,4.479h184.58c2.473,0,4.484-2.008,4.484-4.478v-50.626h6.027c1.25,0,1.754-.946,1.879-1.236.125-.29.465-1.306-.395-2.211Z"/>
</svg>