<?xml version="1.0" encoding="UTF-8"?>
<!DOCTYPE svg PUBLIC "-//W3C//DTD SVG 1.1//EN" "http://www.w3.org/Graphics/SVG/1.1/DTD/svg11.dtd">
<!-- Creator: CorelDRAW Standard 2021 (64-Bit) -->
<svg xmlns="http://www.w3.org/2000/svg" xml:space="preserve" width="3in" height="1.5in" version="1.1" shape-rendering="geometricPrecision" text-rendering="geometricPrecision" image-rendering="optimizeQuality" fill-rule="evenodd" clip-rule="evenodd"
viewBox="0 0 3000 1500"
 xmlns:xlink="http://www.w3.org/1999/xlink"
 xmlns:xodm="http://www.corel.com/coreldraw/odm/2003">
 <g id="Layer_x0020_1">
  <metadata id="CorelCorpID_0Corel-Layer"/>
  <g id="_2049706690496">
   <g>
    <path id="Outline" fill="black" d="M779.83 3.48c21.71,0 42.85,7.71 58,21.18l163.1 142.67 0.98 0.86 277.6 0 0 -108.82c0,-28.13 22.87,-51 51,-51l196.96 0c28.13,0 51,22.87 51,51l0 108.82 931.35 0c13.93,0 27.42,5.79 37,15.9l435.63 459.17c14.26,15.03 18.03,36.19 9.85,55.22 -8.18,19.04 -26.14,30.86 -46.85,30.86l-61.24 0 0 682.25c0,46.83 -38.1,84.93 -84.93,84.93l-2566.61 0c-46.83,0 -84.93,-38.1 -84.93,-84.93l0 -682.25 -93.15 0c-26.04,0 -41.74,-17.08 -47.74,-33.06 -6,-15.98 -5.43,-39.17 14.17,-56.32l703.61 -615.44c13.87,-13.57 33.47,-21.04 55.21,-21.04l0 0 -0.01 0 0 0 0 0zm0 -3.47c-21.37,0 -42.48,7.19 -57.64,22.03l-703.48 615.31c-37.86,33.11 -14.44,95.47 35.86,95.47l89.68 0 0 678.78c0,48.82 39.58,88.4 88.4,88.4l2566.6 0c48.83,0 88.4,-39.58 88.4,-88.4l0 -678.78 57.76 0c47.83,0 72.43,-57.25 39.52,-91.94l-435.63 -459.17c-10.28,-10.85 -24.57,-16.98 -39.52,-16.98l-927.87 0 0 -105.35c0,-30.08 -24.39,-54.47 -54.47,-54.47l-196.96 0c-30.08,0 -54.47,24.39 -54.47,54.47l0 105.35 -272.82 0 -163.1 -142.68c-16.36,-14.53 -38.46,-22.03 -60.28,-22.03l0 0 0.02 -0.01 0 0 -0 0z"/>
   </g>
   <path id="Inner" fill="black" d="M 147.741 729.336 L 147.75 1411.582 C 148.889 1466.486 193.335 1496.526 232.664 1496.48 L 2799.294 1496.536 C 2852.41 1496.329 2884.636 1451.784 2884.217 1411.517 L 2884.234 729.366 L 2945.449 729.316 C 2960.478 729.356 2981.777 722.289 2992.327 698.502 C 3000.051 679.992 2997.407 658.752 2982.457 643.255 L 2546.839 184.063 C 2538.216 175.46 2526.695 168.434 2509.807 168.19 L 1578.469 168.187 L 1578.476 59.367 C 1578.441 31.887 1555.999 8.343 1527.434 8.381 L 1330.512 8.372 C 1302.483 8.389 1279.456 31.277 1279.517 59.379 L 1279.537 168.181 L 1001.937 168.213 L 837.833 24.624 C 822.685 11.203 801.601 3.482 779.833 3.464 C 758.064 3.517 738.55 11.004 724.647 24.533 L 21.04 639.969 C 1.423 657.13 0.909 680.34 6.847 696.29 C 12.837 712.27 28.604 729.356 54.621 729.326"/>
  </g>
 </g>
</svg>
