<?xml version="1.0" encoding="UTF-8"?>
<!DOCTYPE svg PUBLIC "-//W3C//DTD SVG 1.1//EN" "http://www.w3.org/Graphics/SVG/1.1/DTD/svg11.dtd">
<!-- Creator: CorelDRAW Standard 2021 (64-Bit) -->
<?xml-stylesheet href="house-1.5x3.css" type="text/css"?>
<svg xmlns="http://www.w3.org/2000/svg" xml:space="preserve" width="3in" height="1.5in" version="1.1" style="shape-rendering:geometricPrecision; text-rendering:geometricPrecision; image-rendering:optimizeQuality; fill-rule:evenodd; clip-rule:evenodd"
viewBox="0 0 3000 1500"
 xmlns:xlink="http://www.w3.org/1999/xlink"
 xmlns:xodm="http://www.corel.com/coreldraw/odm/2003">
 <g id="Layer_x0020_1">
  <metadata id="CorelCorpID_0Corel-Layer"/>
  <g id="_2049706690496">
   <g>
    <path id="Outline" class="fil0" d="M779.83 3.48c21.71,0 42.85,7.71 58,21.18l163.1 142.67 0.98 0.86 277.6 0 0 -108.82c0,-28.13 22.87,-51 51,-51l196.96 0c28.13,0 51,22.87 51,51l0 108.82 931.35 0c13.93,0 27.42,5.79 37,15.9l435.63 459.17c14.26,15.03 18.03,36.19 9.85,55.22 -8.18,19.04 -26.14,30.86 -46.85,30.86l-61.24 0 0 682.25c0,46.83 -38.1,84.93 -84.93,84.93l-2566.61 0c-46.83,0 -84.93,-38.1 -84.93,-84.93l0 -682.25 -93.15 0c-26.04,0 -41.74,-17.08 -47.74,-33.06 -6,-15.98 -5.43,-39.17 14.17,-56.32l703.61 -615.44c13.87,-13.57 33.47,-21.04 55.21,-21.04l0 0 -0.01 0 0 0zm0 -3.47c-21.37,0 -42.48,7.19 -57.64,22.03l-703.48 615.31c-37.86,33.11 -14.44,95.47 35.86,95.47l89.68 0 0 678.78c0,48.82 39.58,88.4 88.4,88.4l2566.6 0c48.83,0 88.4,-39.58 88.4,-88.4l0 -678.78 57.76 0c47.83,0 72.43,-57.25 39.52,-91.94l-435.63 -459.17c-10.28,-10.85 -24.57,-16.98 -39.52,-16.98l-927.87 0 0 -105.35c0,-30.08 -24.39,-54.47 -54.47,-54.47l-196.96 0c-30.08,0 -54.47,24.39 -54.47,54.47l0 105.35 -272.82 0 -163.1 -142.68c-16.36,-14.53 -38.46,-22.03 -60.28,-22.03l0 0 0.02 -0.01 -0 0z"/>
   </g>
   <path id="Inner" class="fil1 str0" d="M2917.36 664.97l-421.17 -428.13c-5.16,-5.26 -12.42,-8.27 -19.92,-8.27l-922.25 0 0 -122.51c0,-14.62 -12.31,-26.5 -27.48,-26.5l-190.41 0c-15.15,0 -27.48,11.89 -27.48,26.5l0 122.51 -298.4 0 -164.94 -139.13c-10.7,-9.17 -25.83,-14.42 -41.56,-14.42 -15.07,0 -28.96,4.96 -38.06,13.55l-681.2 574.69c-13.31,11.23 -9.22,25.25 -7.65,29.27 1.58,4.04 8.08,17.19 25.75,17.19l111.87 0 0 657.17c0,32.05 27.03,58.14 60.28,58.14l2481.37 0c33.25,0 60.28,-26.07 60.28,-58.12l0 -657.17 81.02 0c16.8,0 23.58,-12.28 25.26,-16.05 1.68,-3.77 6.25,-16.96 -5.31,-28.7l0 0 -0.01 -0.01z"/>
  </g>
 </g>
</svg>
