<?xml version="1.0" encoding="UTF-8"?>
<svg id="Layer_1" data-name="Layer 1" xmlns="http://www.w3.org/2000/svg" width="216" height="108" viewBox="0 0 216 108">
  <defs>
    <style>
      .cls-1 {
        fill: #a3a3a3;
      }
    </style>
  </defs>
  <path id="Outline" d="M108,.25c59.414,0,107.75,24.112,107.75,53.75s-48.336,53.75-107.75,53.75S.25,83.638.25,54,48.586.25,108,.25M108,0C48.516,0,0,24.258,0,54s48.516,54,108,54,108-24.258,108-54S167.484,0,108,0h0Z"/>
  <path id="Inner" class="cls-1" d="M108,106c-28.45,0-55.221-5.545-75.38-15.611C12.874,80.528,2,67.605,2,54s10.874-26.528,30.62-36.388C52.779,7.545,79.549,2,108,2s55.221,5.545,75.38,15.612c19.747,9.86,30.62,22.783,30.62,36.388s-10.874,26.528-30.62,36.389c-20.16,10.067-46.929,15.611-75.38,15.611Z"/>
</svg>