<?xml version="1.0" encoding="UTF-8"?>
<!DOCTYPE svg PUBLIC "-//W3C//DTD SVG 1.1//EN" "http://www.w3.org/Graphics/SVG/1.1/DTD/svg11.dtd">
<!-- Creator: CorelDRAW Standard 2021 (64-Bit) -->
<svg xmlns="http://www.w3.org/2000/svg" xml:space="preserve" width="3.15in" height="1.65in" version="1.1" style="shape-rendering:geometricPrecision; text-rendering:geometricPrecision; image-rendering:optimizeQuality; fill-rule:evenodd; clip-rule:evenodd"
viewBox="0 0 3150 1650"
 xmlns:xlink="http://www.w3.org/1999/xlink"
 xmlns:xodm="http://www.corel.com/coreldraw/odm/2003">
 <defs>
  <style type="text/css">
   <![CDATA[
    .str0 {stroke:#373435;stroke-width:3;stroke-miterlimit:22.9256}
    .fil1 {fill:none;fill-rule:nonzero}
    .fil0 {fill:#000001;fill-rule:nonzero}
   ]]>
  </style>
 </defs>
 <g id="Layer_x0020_1">
  <metadata id="CorelCorpID_0Corel-Layer"/>
  <path id="Outline" class="fil0" d="M1575 244.28c303.27,0 588.68,59.2 803.65,166.68 218.98,109.49 339.58,256.54 339.58,414.05 0,157.51 -120.6,304.56 -339.58,414.05 -214.98,107.48 -500.39,166.68 -803.65,166.68 -303.26,0 -588.68,-59.2 -803.65,-166.68 -218.99,-109.49 -339.58,-256.54 -339.58,-414.05 0,-157.51 120.59,-304.56 339.58,-414.05 214.96,-107.48 500.37,-166.68 803.65,-166.68l0 0zm0 -2.61c-303.67,0 -589.49,59.29 -804.81,166.95 -219.92,109.96 -341.02,257.83 -341.02,416.39 0,158.55 121.1,306.43 341.02,416.39 215.32,107.66 501.15,166.95 804.81,166.95 303.67,0 589.49,-59.29 804.81,-166.95 219.91,-109.96 341.02,-257.83 341.02,-416.39 0,-158.55 -121.11,-306.43 -341.02,-416.39 -215.32,-107.66 -501.14,-166.95 -804.81,-166.95l0 0z"/>
  <path id="Inner" class="fil1 str0" d="M1575 265.11c618.9,0 1122.4,251.17 1122.4,559.9 0,308.73 -503.5,559.9 -1122.4,559.9 -618.9,0 -1122.4,-251.17 -1122.4,-559.9 0,-308.73 503.5,-559.9 1122.4,-559.9l0 0zm0 -2.6c-621.32,0 -1125,251.84 -1125,562.5 0,310.66 503.68,562.5 1125,562.5 621.32,0 1125,-251.84 1125,-562.5 0,-310.66 -503.68,-562.5 -1125,-562.5l0 0z"/>
 </g>
</svg>
