<?xml version="1.0" encoding="UTF-8"?>
<svg id="Layer_1" data-name="Layer 1" xmlns="http://www.w3.org/2000/svg" width="216" height="108" viewBox="0 0 216 108">
  <defs>
    <style>
      .cls-1 {
        fill: #231f20;
      }

      .cls-2 {
        fill: #bcbcbc;
      }
    </style>
  </defs>
  <path id="Outline" class="cls-1" d="M198,.25c9.787,0,17.75,7.963,17.75,17.75v72c0,9.787-7.963,17.75-17.75,17.75H18c-9.787,0-17.75-7.963-17.75-17.75V18C.25,8.213,8.213.25,18,.25h180M198,0H18C8.059,0,0,8.059,0,18v72c0,9.941,8.059,18,18,18h180c9.941,0,18-8.059,18-18V18c0-9.941-8.059-18-18-18h0Z"/>
  <path id="Inner" class="cls-2" d="M197.896,2H18.104C9.225,2,2,9.216,2,18.085v71.83c0,8.87,7.225,16.085,16.104,16.085h179.791c8.881,0,16.104-7.215,16.104-16.085V18.085c0-8.869-7.224-16.085-16.104-16.085Z"/>
</svg>