<?xml version="1.0" encoding="UTF-8"?>
<svg id="Layer_1" data-name="Layer 1" xmlns="http://www.w3.org/2000/svg" width="216" height="72" viewBox="0 0 216 72">
  <defs>
    <style>
      .cls-1 {
        fill: #bababa;
      }
    </style>
  </defs>
  <path id="Outline" d="M197.706.25c9.95,0,18.044,8.095,18.044,18.044v35.412c0,9.95-8.095,18.044-18.044,18.044H18.294C8.345,71.75.25,63.655.25,53.706V18C.25,8.213,8.213.25,18,.25h179.706M197.706,0H18C8.059,0,0,8.059,0,18v35.706c0,10.104,8.191,18.294,18.294,18.294h179.412c10.104,0,18.294-8.191,18.294-18.294V18.294c0-10.104-8.191-18.294-18.294-18.294h0Z"/>
  <path id="Inner" class="cls-1" d="M197.602,2H18.104C9.225,2,2,9.207,2,18.065v35.577c0,9.02,7.356,16.358,16.398,16.358h179.204c9.042,0,16.398-7.337,16.398-16.358V18.358c0-9.019-7.355-16.358-16.398-16.358Z"/>
</svg>