<?xml version="1.0" encoding="UTF-8"?>
<!DOCTYPE svg PUBLIC "-//W3C//DTD SVG 1.1//EN" "http://www.w3.org/Graphics/SVG/1.1/DTD/svg11.dtd">
<!-- Creator: CorelDRAW Standard 2021 (64-Bit) -->
<svg xmlns="http://www.w3.org/2000/svg" xml:space="preserve" width="3in" height="1.5in" version="1.1" shape-rendering="geometricPrecision" text-rendering="geometricPrecision" image-rendering="optimizeQuality" fill-rule="evenodd" clip-rule="evenodd"
viewBox="0 0 3000 1500"
 xmlns:xlink="http://www.w3.org/1999/xlink"
 xmlns:xodm="http://www.corel.com/coreldraw/odm/2003">
 <g id="Layer_x0020_1">
  <metadata id="CorelCorpID_0Corel-Layer"/>
  <g id="_2050216781696">
   <g>
    <path id="Outline" fill="#231F20" fill-rule="nonzero" d="M2750 3.48c135.93,0 246.53,110.6 246.53,246.53l0 1000c0,135.93 -110.6,246.53 -246.53,246.53l-2500 0c-135.93,0 -246.53,-110.6 -246.53,-246.53l0 -1000c0,-135.93 110.6,-246.53 246.53,-246.53l2500 0 0 0zm0 -3.47l-2500 0c-138.07,0 -250,111.93 -250,250l0 1000c0,138.07 111.93,250 250,250l2500 0c138.07,0 250,-111.93 250,-250l0 -1000c0,-138.07 -111.93,-250 -250,-250l0 0z"/>
   </g>
   <path id="Inner" fill="none" fill-rule="nonzero" stroke="#373435" stroke-width="3" stroke-miterlimit="22.9256" d="M2772.11 0.02l-2544.23 0c-125.65,0 -227.89,104.07 -227.89,231.99l0 1036.01c0,127.93 102.24,232 227.89,232l2544.22 0c125.68,0 227.89,-104.06 227.89,-232l0 -1036.01c0,-127.92 -102.22,-231.99 -227.89,-231.99l0.01 0 0 0z"/>
  </g>
 </g>
</svg>
