<?xml version="1.0" encoding="UTF-8"?>
<!DOCTYPE svg PUBLIC "-//W3C//DTD SVG 1.1//EN" "http://www.w3.org/Graphics/SVG/1.1/DTD/svg11.dtd">
<!-- Creator: CorelDRAW Standard 2021 (64-Bit) -->
<svg xmlns="http://www.w3.org/2000/svg" xml:space="preserve" width="3.15in" height="1.65in" version="1.1" style="shape-rendering:geometricPrecision; text-rendering:geometricPrecision; image-rendering:optimizeQuality; fill-rule:evenodd; clip-rule:evenodd"
viewBox="0 0 3150 1650"
 xmlns:xlink="http://www.w3.org/1999/xlink"
 xmlns:xodm="http://www.corel.com/coreldraw/odm/2003">
 <defs>
  <style type="text/css">
   <![CDATA[
    .str0 {stroke:#373435;stroke-width:3;stroke-miterlimit:22.9256}
    .fil0 {fill:none}
    .fil1 {fill:#000001;fill-rule:nonzero}
   ]]>
  </style>
 </defs>
 <g id="Layer_x0020_1">
  <metadata id="CorelCorpID_0Corel-Layer"/>
  <g id="_2316827879808">
   <path id="Outline" class="fil1" d="M2300.17 366.15c64.2,0 110.96,11.35 138.98,33.75 21.23,16.97 31.74,40.25 31.24,69.18l0 0.87c0,0 -0.06,3.26 -0.06,3.26l3.96 -0.68 1.09 -0.19c16.67,-2.84 33.62,-5.01 50.39,-6.44 16.79,-1.43 33.85,-2.15 50.69,-2.15 122.44,0 238.47,36.53 326.69,102.85 88.35,66.43 139.6,155.63 144.32,251.08 0,1.21 0.06,2.5 0.13,3.81 0.05,1.13 0.12,2.26 0.12,3.49 0,1.23 -0.05,2.35 -0.12,3.52 -0.06,1.28 -0.13,2.57 -0.13,3.68 -4.72,95.56 -55.99,184.77 -144.33,251.2 -88.22,66.33 -204.24,102.85 -326.69,102.85 -16.84,0 -33.9,-0.72 -50.69,-2.15 -16.78,-1.43 -33.73,-3.59 -50.39,-6.44l-1.09 -0.19 -3.96 -0.68 0.05 3.26 0 0.87c0.52,28.93 -9.98,52.21 -31.22,69.18 -28.01,22.4 -74.77,33.75 -138.98,33.75 -153.09,0 -252.31,-19.15 -339.87,-36.05 -67.04,-12.94 -124.93,-24.11 -193.34,-24.11 -132.11,0 -179.22,41.83 -191.96,57.01 -12.74,-15.18 -59.86,-57.01 -191.96,-57.01 -68.43,0 -126.31,11.18 -193.38,24.11 -87.55,16.9 -186.77,36.04 -339.84,36.04 -64.19,0 -110.95,-11.35 -138.98,-33.75 -21.24,-16.98 -31.74,-40.25 -31.22,-69.18l0 -0.87c0,0 0.08,-3.26 0.08,-3.26l-3.97 0.68 -1.09 0.19c-16.65,2.84 -33.61,5.01 -50.39,6.44 -16.79,1.43 -33.85,2.15 -50.69,2.15 -122.44,0 -238.47,-36.53 -326.69,-102.85 -88.35,-66.43 -139.6,-155.63 -144.33,-251.09 0,-1.15 -0.05,-2.37 -0.13,-3.79 -0.05,-1.13 -0.12,-2.28 -0.12,-3.52 0,-1.24 0.05,-2.37 0.12,-3.68 0.05,-1.24 0.12,-2.48 0.12,-3.52 4.74,-95.56 55.99,-184.77 144.33,-251.2 88.22,-66.33 204.24,-102.85 326.69,-102.85 16.84,0 33.89,0.72 50.69,2.15 16.78,1.43 33.73,3.59 50.41,6.44l1.09 0.19 3.97 0.68 -0.06 -3.27 0 -0.87c-0.53,-28.93 9.98,-52.21 31.21,-69.18 28.01,-22.4 74.77,-33.75 138.98,-33.75 153.07,0 252.3,19.15 339.85,36.04 67.04,12.94 124.94,24.11 193.37,24.11 132.1,0 179.22,-41.83 191.96,-57.01 12.74,15.18 59.86,57.01 191.96,57.01 68.41,0 126.31,-11.18 193.38,-24.11 87.55,-16.9 186.76,-36.04 339.84,-36.04z"/>
  </g>
  <g id="_2316827878368">
   <path id="Inner" class="fil0 str0" d="M2300.17 366.15c64.2,0 110.96,11.35 138.98,33.75 21.23,16.97 31.74,40.25 31.24,69.18l0 0.87c0,0 -0.06,3.26 -0.06,3.26l3.96 -0.68 1.09 -0.19c16.67,-2.84 33.62,-5.01 50.39,-6.44 16.79,-1.43 33.85,-2.15 50.69,-2.15 122.44,0 238.47,36.53 326.69,102.85 88.35,66.43 139.6,155.63 144.32,251.08 0,1.21 0.06,2.5 0.13,3.81 0.05,1.13 0.12,2.26 0.12,3.49 0,1.23 -0.05,2.35 -0.12,3.52 -0.06,1.28 -0.13,2.57 -0.13,3.68 -4.72,95.56 -55.99,184.77 -144.33,251.2 -88.22,66.33 -204.24,102.85 -326.69,102.85 -16.84,0 -33.9,-0.72 -50.69,-2.15 -16.78,-1.43 -33.73,-3.59 -50.39,-6.44l-1.09 -0.19 -3.96 -0.68 0.05 3.26 0 0.87c0.52,28.93 -9.98,52.21 -31.22,69.18 -28.01,22.4 -74.77,33.75 -138.98,33.75 -153.09,0 -252.31,-19.15 -339.87,-36.05 -67.04,-12.94 -124.93,-24.11 -193.34,-24.11 -132.11,0 -179.22,41.83 -191.96,57.01 -12.74,-15.18 -59.86,-57.01 -191.96,-57.01 -68.43,0 -126.31,11.18 -193.38,24.11 -87.55,16.9 -186.77,36.04 -339.84,36.04 -64.19,0 -110.95,-11.35 -138.98,-33.75 -21.24,-16.98 -31.74,-40.25 -31.22,-69.18l0 -0.87c0,0 0.08,-3.26 0.08,-3.26l-3.97 0.68 -1.09 0.19c-16.65,2.84 -33.61,5.01 -50.39,6.44 -16.79,1.43 -33.85,2.15 -50.69,2.15 -122.44,0 -238.47,-36.53 -326.69,-102.85 -88.35,-66.43 -139.6,-155.63 -144.33,-251.09 0,-1.15 -0.05,-2.37 -0.13,-3.79 -0.05,-1.13 -0.12,-2.28 -0.12,-3.52 0,-1.24 0.05,-2.37 0.12,-3.68 0.05,-1.24 0.12,-2.48 0.12,-3.52 4.74,-95.56 55.99,-184.77 144.33,-251.2 88.22,-66.33 204.24,-102.85 326.69,-102.85 16.84,0 33.89,0.72 50.69,2.15 16.78,1.43 33.73,3.59 50.41,6.44l1.09 0.19 3.97 0.68 -0.06 -3.27 0 -0.87c-0.53,-28.93 9.98,-52.21 31.21,-69.18 28.01,-22.4 74.77,-33.75 138.98,-33.75 153.07,0 252.3,19.15 339.85,36.04 67.04,12.94 124.94,24.11 193.37,24.11 132.1,0 179.22,-41.83 191.96,-57.01 12.74,15.18 59.86,57.01 191.96,57.01 68.41,0 126.31,-11.18 193.38,-24.11 87.55,-16.9 186.76,-36.04 339.84,-36.04z"/>
  </g>
 </g>
</svg>
