<?xml version="1.0" encoding="UTF-8"?>
<!DOCTYPE svg PUBLIC "-//W3C//DTD SVG 1.1//EN" "http://www.w3.org/Graphics/SVG/1.1/DTD/svg11.dtd">
<!-- Creator: CorelDRAW Standard 2021 (64-Bit) -->
<svg xmlns="http://www.w3.org/2000/svg" xml:space="preserve" width="3.15in" height="1.65in" version="1.1" style="shape-rendering:geometricPrecision; text-rendering:geometricPrecision; image-rendering:optimizeQuality; fill-rule:evenodd; clip-rule:evenodd"
viewBox="0 0 3150 1650"
 xmlns:xlink="http://www.w3.org/1999/xlink"
 xmlns:xodm="http://www.corel.com/coreldraw/odm/2003">
 <defs>
  <style type="text/css">
   <![CDATA[
    .str0 {stroke:#373435;stroke-width:3;stroke-miterlimit:22.9256}
    .fil1 {fill:none;fill-rule:nonzero}
    .fil0 {fill:black;fill-rule:nonzero}
   ]]>
  </style>
 </defs>
 <g id="Layer_x0020_1">
  <metadata id="CorelCorpID_0Corel-Layer"/>
  <g id="_2049706690496">
   <g>
    <path id="Outline" class="fil0" d="M854.83 78.48c21.71,0 42.85,7.71 58,21.18l163.1 142.67 0.98 0.86 277.6 0 0 -108.82c0,-28.13 22.87,-51 51,-51l196.96 0c28.13,0 51,22.87 51,51l0 108.82 931.35 0c13.93,0 27.42,5.79 37,15.9l435.63 459.17c14.26,15.03 18.03,36.19 9.85,55.22 -8.18,19.04 -26.14,30.86 -46.85,30.86l-61.24 0 0 682.25c0,46.83 -38.1,84.93 -84.93,84.93l-2566.61 0c-46.83,0 -84.93,-38.1 -84.93,-84.93l0 -682.25 -93.15 0c-26.04,0 -41.74,-17.08 -47.74,-33.06 -6,-15.98 -5.43,-39.17 14.17,-56.32l703.61 -615.44c13.87,-13.57 33.47,-21.04 55.21,-21.04l0 0 -0.01 0zm0 -3.47c-21.37,0 -42.48,7.19 -57.64,22.03l-703.48 615.31c-37.86,33.11 -14.44,95.47 35.86,95.47l89.68 0 0 678.78c0,48.82 39.58,88.4 88.4,88.4l2566.6 0c48.83,0 88.4,-39.58 88.4,-88.4l0 -678.78 57.76 0c47.83,0 72.43,-57.25 39.52,-91.94l-435.63 -459.17c-10.28,-10.85 -24.57,-16.98 -39.52,-16.98l-927.87 0 0 -105.35c0,-30.08 -24.39,-54.47 -54.47,-54.47l-196.96 0c-30.08,0 -54.47,24.39 -54.47,54.47l0 105.35 -272.82 0 -163.1 -142.68c-16.36,-14.53 -38.46,-22.03 -60.28,-22.03l0 0 0.02 -0.01z"/>
   </g>
   <path id="Inner" class="fil1 str0" d="M3039.34 734.02l-435.13 -458.08c-5.33,-5.63 -12.83,-8.85 -20.58,-8.85l-952.82 0 0 -131.08c0,-15.64 -12.72,-28.36 -28.39,-28.36l-196.72 0c-15.65,0 -28.39,12.72 -28.39,28.36l0 131.08 -308.29 0 -170.4 -148.87c-11.06,-9.81 -26.69,-15.43 -42.94,-15.43 -15.57,0 -29.92,5.31 -39.32,14.5l-703.78 614.89c-13.75,12.02 -9.53,27.02 -7.9,31.32 1.63,4.32 8.35,18.39 26.6,18.39l115.58 0 0 703.14c0,34.29 27.93,62.21 62.28,62.21l2563.61 0c34.35,0 62.28,-27.89 62.28,-62.19l0 -703.14 83.71 0c17.36,0 24.36,-13.14 26.1,-17.17 1.74,-4.03 6.46,-18.14 -5.48,-30.71l0 0 -0.01 -0.01z"/>
  </g>
 </g>
</svg>
