<?xml version="1.0" encoding="UTF-8"?>
<!DOCTYPE svg PUBLIC "-//W3C//DTD SVG 1.1//EN" "http://www.w3.org/Graphics/SVG/1.1/DTD/svg11.dtd">
<!-- Creator: CorelDRAW Standard 2021 (64-Bit) -->
<svg xmlns="http://www.w3.org/2000/svg" xml:space="preserve" width="3in" height="1.5in" version="1.1" shape-rendering="geometricPrecision" text-rendering="geometricPrecision" image-rendering="optimizeQuality" fill-rule="evenodd" clip-rule="evenodd"
viewBox="0 0 3000 1500"
 xmlns:xlink="http://www.w3.org/1999/xlink"
 xmlns:xodm="http://www.corel.com/coreldraw/odm/2003">
 <g id="Layer_x0020_1">
  <metadata id="CorelCorpID_0Corel-Layer"/>
  <path id="Outline" fill="black" d="M779.85 3.47c21.71,0 42.85,7.71 58,21.18l163.1 142.67 0.98 0.86 277.6 0 0 -108.82c0,-28.13 22.87,-51 51,-51l196.96 0c28.13,0 51,22.87 51,51l0 108.82 931.35 0c13.93,0 27.42,5.79 37,15.9l435.63 459.17c14.26,15.03 18.03,36.19 9.85,55.22 -8.18,19.04 -26.14,30.86 -46.85,30.86l-61.24 0 0 682.25c0,46.83 -38.1,84.93 -84.93,84.93l-2566.61 0c-46.83,0 -84.93,-38.1 -84.93,-84.93l0 -682.25 -93.15 0c-26.04,0 -41.74,-17.08 -47.74,-33.06 -6,-15.98 -5.43,-39.17 14.17,-56.32l703.61 -615.44c13.87,-13.57 33.47,-21.04 55.21,-21.04l0 0 -0.01 0 0 0 0 0 0 0zm0 -3.47c-21.37,0 -42.48,7.19 -57.64,22.03l-703.48 615.31c-37.86,33.11 -14.44,95.47 35.86,95.47l89.68 0 0 678.78c0,48.82 39.58,88.4 88.4,88.4l2566.6 0c48.83,0 88.4,-39.58 88.4,-88.4l0 -678.78 57.76 0c47.83,0 72.43,-57.25 39.52,-91.94l-435.63 -459.17c-10.28,-10.85 -24.57,-16.98 -39.52,-16.98l-927.87 0 0 -105.35c0,-30.08 -24.39,-54.47 -54.47,-54.47l-196.96 0c-30.08,0 -54.47,24.39 -54.47,54.47l0 105.35 -272.82 0 -163.1 -142.68c-16.36,-14.53 -38.46,-22.03 -60.28,-22.03l0 0 0.02 -0.01 0 0 0 0 -0 0z"/>
  <path id="Inner" fill="black" d="M779.83 3.48c21.71,0 42.85,7.71 58,21.18l163.1 142.67 0.98 0.86 277.6 0 0 -108.82c0,-28.13 22.87,-51 51,-51l196.96 0c28.13,0 51,22.87 51,51l0 108.82 931.35 0c13.93,0 27.42,5.79 37,15.9l435.63 459.17c14.26,15.03 18.03,36.19 9.85,55.22 -8.18,19.04 -26.14,30.86 -46.85,30.86l-61.24 0 0 682.25c0,46.83 -38.1,84.93 -84.93,84.93l-2566.61 0c-46.83,0 -84.93,-38.1 -84.93,-84.93l0 -682.25 -93.15 0c-26.04,0 -41.74,-17.08 -47.74,-33.06 -6,-15.98 -5.43,-39.17 14.17,-56.32l703.61 -615.44c13.87,-13.57 33.47,-21.04 55.21,-21.04l0 0 -0.01 0 0 0 0 0 0 0zm0 -3.47c-21.37,0 -42.48,7.19 -57.64,22.03l-703.48 615.31c-37.86,33.11 -14.44,95.47 35.86,95.47l89.68 0 0 678.78c0,48.82 39.58,88.4 88.4,88.4l2566.6 0c48.83,0 88.4,-39.58 88.4,-88.4l0 -678.78 57.76 0c47.83,0 72.43,-57.25 39.52,-91.94l-435.63 -459.17c-10.28,-10.85 -24.57,-16.98 -39.52,-16.98l-927.87 0 0 -105.35c0,-30.08 -24.39,-54.47 -54.47,-54.47l-196.96 0c-30.08,0 -54.47,24.39 -54.47,54.47l0 105.35 -272.82 0 -163.1 -142.68c-16.36,-14.53 -38.46,-22.03 -60.28,-22.03l0 0 0.02 -0.01 0 0 0 0 -0 0z"/>
 </g>
</svg>
