<?xml version="1.0" encoding="UTF-8"?>
<!DOCTYPE svg PUBLIC "-//W3C//DTD SVG 1.1//EN" "http://www.w3.org/Graphics/SVG/1.1/DTD/svg11.dtd">
<!-- Creator: CorelDRAW Standard 2021 (64-Bit) -->
<svg xmlns="http://www.w3.org/2000/svg" xml:space="preserve" width="3.15in" height="1.65in" version="1.1" style="shape-rendering:geometricPrecision; text-rendering:geometricPrecision; image-rendering:optimizeQuality; fill-rule:evenodd; clip-rule:evenodd"
viewBox="0 0 3150 1650"
 xmlns:xlink="http://www.w3.org/1999/xlink"
 xmlns:xodm="http://www.corel.com/coreldraw/odm/2003">
 <defs>
  <style type="text/css">
   <![CDATA[
    .str0 {stroke:#373435;stroke-width:3;stroke-miterlimit:22.9256}
    .fil1 {fill:none;fill-rule:nonzero}
    .fil0 {fill:#231F20;fill-rule:nonzero}
   ]]>
  </style>
 </defs>
 <g id="Layer_x0020_1">
  <metadata id="CorelCorpID_0Corel-Layer"/>
  <g id="_2050216781696">
   <g>
    <path id="Outline" class="fil0" d="M2825 78.48c135.93,0 246.53,110.6 246.53,246.53l0 1000c0,135.93 -110.6,246.53 -246.53,246.53l-2500 0c-135.93,0 -246.53,-110.6 -246.53,-246.53l0 -1000c0,-135.93 110.6,-246.53 246.53,-246.53l2500 0 0 0zm0 -3.47l-2500 0c-138.07,0 -250,111.93 -250,250l0 1000c0,138.07 111.93,250 250,250l2500 0c138.07,0 250,-111.93 250,-250l0 -1000c0,-138.07 -111.93,-250 -250,-250l0 0z"/>
   </g>
   <path id="Inner" class="fil1 str0" d="M2823.55 102.79l-2497.11 0c-123.32,0 -223.67,100.22 -223.67,223.4l0 997.64c0,123.19 100.35,223.4 223.67,223.4l2497.1 0c123.35,0 223.67,-100.21 223.67,-223.4l0 -997.64c0,-123.18 -100.33,-223.4 -223.67,-223.4l0.01 0 -0 0z"/>
  </g>
 </g>
</svg>
