<?xml version="1.0" encoding="UTF-8"?>
<!DOCTYPE svg PUBLIC "-//W3C//DTD SVG 1.1//EN" "http://www.w3.org/Graphics/SVG/1.1/DTD/svg11.dtd">
<!-- Creator: CorelDRAW 2026 -->
<svg xmlns="http://www.w3.org/2000/svg" xml:space="preserve" width="4in" height="8in" version="1.1" style="shape-rendering:geometricPrecision; text-rendering:geometricPrecision; image-rendering:optimizeQuality; fill-rule:evenodd; clip-rule:evenodd"
viewBox="0 0 4000 8000"
 xmlns:xlink="http://www.w3.org/1999/xlink"
 xmlns:xodm="http://www.corel.com/coreldraw/odm/2003">
 <defs>
  <style type="text/css">
   <![CDATA[
    .str0 {stroke:#282828;stroke-width:3;stroke-miterlimit:2.61313}
    .fil0 {fill:#282828}
    .fil1 {fill:#FEFEFE}
   ]]>
  </style>
 </defs>
 <g id="Layer_x0020_1">
  <metadata id="CorelCorpID_0Corel-Layer"/>
  <path class="fil0 str0" d="M2000 3388.89c-690.35,0 -1250,-559.63 -1250,-1250 0,-690.36 559.65,-1250 1250,-1250 690.36,-0 1250,559.64 1250,1250 0,690.36 -559.64,1250 -1250,1250zm1538.78 -2009.23c-34.49,-259.2 -35.42,-516.01 -35.42,-776.41 -155.36,17.97 -282.06,-67.45 -267.39,-233.85 -199.48,0 -354.19,-11.77 -542.29,-92.62 -211.6,-90.95 -453.4,-276.78 -693.68,-276.78 -240.28,0 -482.07,185.83 -693.69,276.78 -188.09,80.85 -342.79,92.62 -542.28,92.62 14.66,166.39 -112.03,251.82 -267.39,233.85 0,260.4 -0.93,517.2 -35.41,776.41 -115.38,867.39 -461.23,1743.75 -461.23,2622.9 0,834.85 314.48,1681.33 444.49,2501.06 47.3,298.18 52.15,592.88 52.15,893.14 155.36,-17.98 282.05,67.46 267.39,233.85 199.49,0 354.19,11.78 542.28,92.63 211.61,90.96 453.41,276.78 693.69,276.78 240.28,0 482.08,-185.82 693.68,-276.78 188.1,-80.85 342.8,-92.63 542.29,-92.63 -14.67,-166.39 112.03,-251.82 267.39,-233.85 0,-300.26 4.85,-594.96 52.15,-893.14 130,-819.72 444.48,-1666.21 444.48,-2501.06 0,-879.15 -345.85,-1755.51 -461.22,-2622.9z"/>
  <path class="fil1" d="M871.75 7495.1c188.66,1.11 325.62,17.42 491.27,91.82 59.57,26.75 120.26,61 184.5,97.29 147.97,83.54 301,169.96 452.47,169.96 151.47,0 304.48,-86.4 452.48,-169.96 64.25,-36.29 124.93,-70.54 184.5,-97.29 165.65,-74.4 302.6,-90.71 491.26,-91.82 -1,-68.33 20.86,-125.85 63.86,-167.31 45.93,-44.3 111.22,-65.9 186.03,-62 0.22,-271.82 4.99,-560.39 48.74,-848.75 44.11,-290.53 112.18,-589.86 178.02,-879.35 115.72,-508.79 235.37,-1034.91 235.39,-1549.09 0.01,-512.92 -118.36,-1033.44 -232.85,-1536.85 -75.43,-331.67 -153.41,-674.63 -196.19,-1010.57 -32.04,-251.72 -33.07,-507.27 -33.11,-734.75 -74.81,3.89 -140.08,-17.69 -186.02,-61.99 -43,-41.46 -64.86,-98.96 -63.86,-167.3 -188.67,-1.11 -325.61,-17.43 -491.26,-91.83 -59.57,-26.75 -120.24,-61.01 -184.48,-97.28 -148,-83.56 -301.03,-169.97 -452.5,-169.97 -151.47,0 -304.52,86.41 -452.5,169.98 -64.24,36.27 -124.92,70.53 -184.48,97.28 -165.65,74.39 -302.61,90.72 -491.27,91.83 0.99,68.33 -20.87,125.84 -63.86,167.31 -45.93,44.29 -111.33,65.98 -186.02,61.98 -0.03,227.49 -1.07,483.04 -33.12,734.75 -42.77,335.96 -120.77,678.92 -196.19,1010.6 -114.48,503.39 -232.85,1023.92 -232.83,1536.82 0.01,514.18 119.66,1040.3 235.37,1549.09 65.84,289.49 133.92,588.82 178.02,879.33 43.78,288.37 48.52,576.94 48.75,848.76 74.69,-3.83 140.08,17.68 186.02,62 42.99,41.46 64.85,98.97 63.86,167.31zm1128.25 400.74c-162.42,0 -320.29,-89.14 -472.97,-175.35 -63.39,-35.8 -123.25,-69.61 -181.07,-95.57 -165.16,-74.15 -301.77,-88.21 -496.09,-88.21l-22.67 0 1.91 -22.58c5.51,-65.33 -11.83,-119.41 -50.15,-156.35 -41.45,-39.99 -103.72,-57.22 -175.42,-48.58l-23.33 2.82 0 -23.52c0,-276.82 -3.73,-571.67 -48.28,-865.19 -43.88,-289.03 -111.78,-587.63 -177.46,-876.38 -116.22,-511.03 -236.39,-1039.47 -236.41,-1558.33 -0.01,-517.59 118.89,-1040.43 233.87,-1546.06 75.21,-330.71 152.98,-672.67 195.5,-1006.63 32.78,-257.51 32.78,-520.33 32.78,-752.21l0 -23.51 23.33 2.82c71.62,8.66 133.94,-8.58 175.42,-48.57 38.31,-36.95 55.65,-91.01 50.15,-156.34l-1.91 -22.59 22.67 0c194.32,0 330.94,-14.06 496.09,-88.22 57.81,-25.97 117.67,-59.77 181.06,-95.55 152.68,-86.22 310.56,-175.36 472.99,-175.36 162.43,-0 320.3,89.15 472.98,175.35 63.39,35.79 123.25,69.59 181.06,95.56 165.15,74.17 301.76,88.22 496.08,88.22l22.67 -0 -1.9 22.59c-5.5,65.33 11.83,119.39 50.15,156.34 41.44,39.98 103.74,57.25 175.43,48.57l23.32 -2.82 0 23.5c0,231.88 0,494.71 32.79,752.21 42.52,333.94 120.28,675.89 195.48,1006.58 114.99,505.65 233.89,1028.5 233.88,1546.1 -0.02,518.86 -120.2,1047.3 -236.42,1558.33 -65.67,288.77 -133.57,587.35 -177.44,876.38 -44.56,293.53 -48.29,588.37 -48.29,865.19l0 23.52 -23.32 -2.82c-71.72,-8.71 -133.99,8.59 -175.43,48.58 -38.32,36.94 -55.65,91.01 -50.15,156.35l1.9 22.58 -22.67 0c-194.32,0 -330.93,14.06 -496.08,88.21 -57.82,25.96 -117.68,59.78 -181.09,95.57 -152.67,86.2 -310.54,175.35 -472.96,175.35z"/>
  <path class="fil1" d="M2000 798.61c-739.03,0 -1340.28,601.25 -1340.28,1340.28 0,739.02 601.24,1340.28 1340.28,1340.28 739.04,0 1340.28,-601.25 1340.28,-1340.28 0,-739.03 -601.24,-1340.28 -1340.28,-1340.28zm0 2722.22c-762,0 -1381.94,-619.94 -1381.94,-1381.94 0,-762.01 619.94,-1381.94 1381.94,-1381.94 762,-0 1381.94,619.94 1381.94,1381.94 0,762 -619.94,1381.94 -1381.94,1381.94z"/>
 </g>
</svg>
