<?xml version="1.0" encoding="UTF-8"?>
<!DOCTYPE svg PUBLIC "-//W3C//DTD SVG 1.1//EN" "http://www.w3.org/Graphics/SVG/1.1/DTD/svg11.dtd">
<!-- Creator: CorelDRAW 2026 -->
<svg xmlns="http://www.w3.org/2000/svg" xml:space="preserve" width="5in" height="7in" version="1.1" style="shape-rendering:geometricPrecision; text-rendering:geometricPrecision; image-rendering:optimizeQuality; fill-rule:evenodd; clip-rule:evenodd"
viewBox="0 0 5000 7000"
 xmlns:xlink="http://www.w3.org/1999/xlink"
 xmlns:xodm="http://www.corel.com/coreldraw/odm/2003">
 <defs>
  <style type="text/css">
   <![CDATA[
    .str0 {stroke:#282828;stroke-width:20.83;stroke-miterlimit:2.61313}
    .fil0 {fill:#282828}
    .fil1 {fill:#FEFEFE}
   ]]>
  </style>
 </defs>
 <g id="Layer_x0020_1">
  <metadata id="CorelCorpID_0Corel-Layer"/>
  <path id="Portrait" class="fil0 str0" d="M0 6550l0 -6100c0,-247.49 202.5,-450 450,-450l4100 0c247.5,0 450,202.5 450,450l0 6100c0,247.49 -202.49,450 -450,450l-4100 0c-247.5,0 -450,-202.5 -450,-450z"/>
  <path id="Border" class="fil1" d="M117 6550l0 -6099.99c0,-183.15 149.85,-333 333,-333l4100 0c183.15,0 333,149.85 333,333l0 6099.99c0,183.15 -149.85,333 -333,333l-4100 0c-183.15,0 -333,-149.85 -333,-333zm140 0l0 -6099.99c0,-106.15 86.85,-193 193,-193l4100 0c106.15,0 193,86.85 193,193l0 6099.99c0,106.15 -86.85,193 -193,193l-4100 0c-106.15,0 -193,-86.85 -193,-193z"/>
 </g>
</svg>
