<?xml version="1.0" encoding="UTF-8"?>
<!DOCTYPE svg PUBLIC "-//W3C//DTD SVG 1.1//EN" "http://www.w3.org/Graphics/SVG/1.1/DTD/svg11.dtd">
<!-- Creator: CorelDRAW 2026 -->
<svg xmlns="http://www.w3.org/2000/svg" xml:space="preserve" width="6in" height="8in" version="1.1" style="shape-rendering:geometricPrecision; text-rendering:geometricPrecision; image-rendering:optimizeQuality; fill-rule:evenodd; clip-rule:evenodd"
viewBox="0 0 6000 8000"
 xmlns:xlink="http://www.w3.org/1999/xlink"
 xmlns:xodm="http://www.corel.com/coreldraw/odm/2003">
 <defs>
  <style type="text/css">
   <![CDATA[
    .str0 {stroke:#282828;stroke-width:20.83;stroke-miterlimit:2.61313}
    .fil0 {fill:#282828}
    .fil1 {fill:#FEFEFE}
   ]]>
  </style>
 </defs>
 <g id="Layer_x0020_1">
  <metadata id="CorelCorpID_0Corel-Layer"/>
  <path id="Portrait" class="fil0 str0" d="M-0 7486l0 -6972c0,-282.7 231.3,-514 514,-514l4972 0c282.7,0 514,231.3 514,514l0 6972c0,282.7 -231.3,514 -514,514l-4972 0c-282.7,0 -514,-231.3 -514,-514z"/>
  <path id="Border" class="fil1" d="M294 7486l0 -6972c0,-121 99,-220 220,-220l4972 0c121,0 220,99 220,220l0 6972c0,121 -99,220 -220,220l-4972 0c-121,0 -220,-99 -220,-220zm-160 0l0 -6972c0,-209 171,-380 380,-380l4972 0c209,0 380,171 380,380l0 6972c0,209 -171,380 -380,380l-4972 0c-209,0 -380,-171 -380,-380z"/>
 </g>
</svg>
